<svg xmlns="http://www.w3.org/2000/svg" xmlns:xlink="http://www.w3.org/1999/xlink" version="1.1" x="0px" y="0px" viewBox="0 0 100 125" enable-background="new 0 0 100 100" xml:space="preserve"><path d="M94.1,68.6c-1.3-1.4-3.5-1.5-4.9-0.1c-0.1,0.1-3.3,2.8-10.4,3.1c7.1-7.1,11.4-16.8,11.4-27.6C90.2,22.4,72.6,4.8,51,4.8  C29.5,4.8,11.9,22.4,11.9,44c0,5.9,1.3,11.4,3.7,16.5c-3.7,1.3-7.1,3.3-10.2,5.9c-1.5,1.2-1.7,3.5-0.4,4.9c1.2,1.5,3.5,1.7,4.9,0.4  c6.6-5.6,15.3-7.5,25.7-5.8c8.1,1.4,14.3,4.5,14.4,4.6c11.7,6.3,20.8,8.2,27.7,8.2c10.7,0,15.9-4.7,16.2-5  C95.3,72.2,95.4,70,94.1,68.6z M80.3,53.2c-0.2,3.7-1,6.9-2,9.5c-2.2,3.1-4.8,5.8-7.9,8.1c-0.1,0-0.1,0-0.2,0  c1.5-3.5,2.7-8.1,2.6-13.8c-0.2-14.1-7.1-22.3-10.1-25.2c0.9-0.5,2-1,3.1-1.4c2.2-0.8,4.3-1.2,6.1-1.5  C73.8,30.6,81.1,38.8,80.3,53.2z M52.8,43.6c0.7-1.9,2.9-6.6,7.5-10.2c2.2,2,9.5,9.7,9.7,23.5c0.1,5.5-1.2,9.8-2.6,13.1  c-2.9-0.8-6-1.9-9.5-3.6c0.2-0.6,0.3-1.2,0.5-1.9C60.6,53.8,54.3,45.5,52.8,43.6z M80.5,28.8c2.4,4.6,3.7,9.7,3.7,15.2  c0,2.5-0.3,4.9-0.8,7.2c0-11.6-4.7-19.2-7.6-22.7C77.7,28.4,79.3,28.6,80.5,28.8z M69.8,16.6c3.5,2.4,6.5,5.4,8.8,8.9  c-3.3-0.2-8,0.1-13.6,2c-9.8,3.4-13.9,12.2-15,15.1c-1.8,0.3-7.3,1.1-12.9-1.1c0.5-2.4,3.2-13.1,15.6-20.5  C59.6,16.8,66,16.4,69.8,16.6z M53,10.9c4.1,0.2,8,1.2,11.6,2.9c-3.8,0.4-8.5,1.7-13.6,4.7c-12.5,7.4-15.9,17.8-16.8,21.7  c-0.9-0.5-1.8-1.1-2.7-1.9c-1.8-1.5-3.3-3.1-4.5-4.5c0.1-0.3,2.6-12.5,17-19.8C47.3,12.2,50.3,11.3,53,10.9z M40.1,12.7  c-9.9,6-13.8,14-15.3,18c-1-1.5-1.7-2.9-2.1-4C26.7,20.3,32.8,15.2,40.1,12.7z M21,30.1c1.5,2.9,4.2,6.7,8.7,10.5  C35,45,41.1,46,45.4,46c2.3,0,4.1-0.3,5.1-0.5c1,1.2,4.4,5.9,5.1,12.2c-3.6,1.1-13.2,2.8-24.6-3.6c-8.1-4.5-11.6-10.7-12.9-13.9  C18.5,36.7,19.5,33.2,21,30.1z M22,58.8c-0.5-0.6-1-1.3-1.5-1.9c-1.4-3.3-2.3-6.8-2.5-10.5c2.3,3.4,5.9,7.3,11.6,10.5  c1.1,0.6,2.2,1.1,3.2,1.6C29,58.1,25.4,58.2,22,58.8z M47.5,61.8c0.1,0,0.3,0,0.4,0c3.3,0,6-0.5,7.8-0.9c0,1-0.2,2-0.4,3.1  c-0.1,0.4-0.2,0.8-0.3,1.2c-0.6-0.3-1.2-0.6-1.8-0.9C53.1,64.1,51,63,47.5,61.8z"/><path d="M77.7,92c-6.9,0-16-1.9-27.7-8.2c0,0-6.2-3.2-14.4-4.6C25.2,77.5,16.5,79.4,9.9,85c-1.5,1.2-3.7,1.1-4.9-0.4  c-1.2-1.5-1.1-3.7,0.4-4.9c8.2-6.9,19.1-9.4,31.6-7.3c9.2,1.6,16,5.1,16.3,5.2C78.4,91.1,89,82,89.1,81.9c1.4-1.3,3.6-1.3,4.9,0.1  c1.3,1.4,1.3,3.6-0.1,4.9C93.6,87.3,88.4,92,77.7,92z"/><text x="0" y="115" fill="#000000" font-size="5px" font-weight="bold" font-family="'Helvetica Neue', Helvetica, Arial-Unicode, Arial, Sans-serif">Created by Ana Lourenço</text><text x="0" y="120" fill="#000000" font-size="5px" font-weight="bold" font-family="'Helvetica Neue', Helvetica, Arial-Unicode, Arial, Sans-serif">from the Noun Project</text></svg>