<svg xmlns="http://www.w3.org/2000/svg" xmlns:xlink="http://www.w3.org/1999/xlink" version="1.1" x="0px" y="0px" viewBox="0 0 100 125" style="enable-background:new 0 0 100 100;" xml:space="preserve"><style type="text/css">
	.st0{fill:none;stroke:#000000;stroke-width:2;stroke-linecap:round;stroke-linejoin:round;stroke-miterlimit:10;}
	.st1{fill:none;stroke:#000000;stroke-width:2;stroke-miterlimit:10;}
	.st2{fill:none;stroke:#000000;stroke-width:2;stroke-linecap:round;stroke-miterlimit:10;}
</style><path d="M55.2,44.6C50.7,63.5,54,74.8,65,78.3v10.1h-6.5c-0.6,0-1,0.4-1,1s0.4,1,1,1h15c0.6,0,1-0.4,1-1s-0.4-1-1-1H67v-10  c11-3.5,14.4-14.8,9.9-33.7c-1.1-4.6-0.9-9.3-0.2-13.2c0.9,0.2,1.7,0.3,2.5,0.3c2.3,0,4.4-0.7,6.2-2.1c2.5-2,4-5.1,4-8.4  c0-6-4.9-10.9-10.9-10.9c-5.7,0-10.4,4.4-10.8,10H53.5c-0.3,0-0.7,0.2-0.8,0.5c-0.2,0.3-0.2,0.6-0.1,1  C52.7,21.9,57.8,33.4,55.2,44.6z M66,76.6c-10.3-3-13.2-13.3-8.9-31.4c1-4.1,1-8.2,0.6-11.8l0.2-0.2c1.2-0.9,2.2-1.7,4.1-1.7  c1.9,0,2.9,0.8,4.1,1.7c1.3,1,2.7,2.1,5.3,2.1c1.2,0,2.2-0.3,3-0.6c-0.3,3.3-0.2,6.9,0.7,10.5C79.2,63.3,76.3,73.5,66,76.6z   M78.6,12.4c4.9,0,8.9,4,8.9,8.9c0,2.7-1.2,5.2-3.3,6.8c-1.4,1.1-3.7,2.1-7.1,1.4c1-4.5,2.4-7.6,2.4-7.7c0.1-0.3,0.1-0.7-0.1-1  c-0.2-0.3-0.5-0.5-0.8-0.5h-8.8C70.2,15.9,74,12.4,78.6,12.4z M77.1,22.4c-0.7,1.9-1.9,5.4-2.5,9.8l0,0c-0.8,0.6-1.7,1.1-3.3,1.1  c-1.9,0-2.9-0.8-4.1-1.7c-1.3-1-2.7-2.1-5.3-2.1c-2.1,0-3.5,0.8-4.6,1.6c-0.7-3.9-1.7-7-2.4-8.7H77.1z"/><path d="M31.5,57.1c-0.4-0.3-0.9-0.3-1.3,0l-10.9,9.2c-0.4,0.3-0.5,0.8-0.2,1.2c0.3,0.5,0.6,1,0.9,1.4c1.4,1.7,3.4,2.7,5.6,2.9  c0.3,0,0.5,0,0.8,0c1.9,0,3.8-0.7,5.3-1.9c1.7-1.4,2.7-3.4,2.9-5.6c0.2-2.2-0.5-4.4-1.9-6.1C32.4,57.9,32,57.5,31.5,57.1z   M32.7,64.2c-0.1,1.7-0.9,3.2-2.2,4.3s-2.9,1.6-4.6,1.4c-1.7-0.1-3.2-0.9-4.3-2.2c-0.1-0.1-0.2-0.2-0.3-0.4l9.6-8.1  c0.1,0.1,0.3,0.3,0.4,0.4C32.4,60.9,32.9,62.5,32.7,64.2z"/><path d="M28.9,65c-0.4-0.4-1-0.5-1.4-0.1c-0.4,0.4-0.5,1-0.1,1.4l0.5,0.6c0.2,0.2,0.5,0.4,0.8,0.4c0.2,0,0.5-0.1,0.6-0.2  c0.4-0.4,0.5-1,0.1-1.4L28.9,65z"/><path d="M25.8,65.7c-0.5-0.1-1.1,0.2-1.2,0.8l-0.3,1.2c-0.1,0.5,0.2,1.1,0.8,1.2c0.1,0,0.1,0,0.2,0c0.5,0,0.9-0.3,1-0.8l0.3-1.2  C26.6,66.4,26.3,65.8,25.8,65.7z"/><path d="M29.6,62.3c-0.6,0-1,0.5-1,1c0,0.5,0.5,1,1,1c0,0,0,0,0,0l1.1,0c0.6,0,1-0.5,1-1c0-0.6-0.5-1-1-1L29.6,62.3z"/><path d="M29,55.6c0.2,0.2,0.5,0.3,0.7,0.3c0.2,0,0.3,0,0.5-0.1c0.5-0.3,0.9-0.6,1.4-1c1.6-1.5,2.6-3.5,2.7-5.7s-0.6-4.3-2.1-6  c-1.5-1.6-3.5-2.6-5.7-2.7c-2.2-0.1-4.3,0.6-6,2.1c-0.4,0.4-0.8,0.9-1.2,1.3c-0.3,0.4-0.2,0.9,0.1,1.3L29,55.6z M21.9,43.9  c1.2-1.1,2.9-1.7,4.5-1.6c1.7,0.1,3.2,0.8,4.3,2.1c1.1,1.2,1.7,2.9,1.6,4.5c-0.1,1.7-0.8,3.2-2.1,4.3c-0.1,0.1-0.2,0.2-0.4,0.3  l-8.5-9.3C21.6,44.2,21.7,44,21.9,43.9z"/><path d="M29.2,47.1c0.4-0.4,0.4-1,0.1-1.4c-0.4-0.4-1-0.4-1.4-0.1l-0.6,0.6c-0.4,0.4-0.4,1-0.1,1.4c0.2,0.2,0.5,0.3,0.7,0.3  c0.2,0,0.5-0.1,0.7-0.3L29.2,47.1z"/><path d="M30.3,50.6c0.5,0,0.9-0.3,1-0.8c0.1-0.5-0.3-1.1-0.8-1.2l-1.2-0.2c-0.5-0.1-1.1,0.3-1.2,0.8c-0.1,0.5,0.3,1.1,0.8,1.2  l1.2,0.2C30.2,50.6,30.2,50.6,30.3,50.6z"/><path d="M25.4,43.3c-0.6,0-1,0.5-0.9,1.1l0.1,1.1c0,0.5,0.5,0.9,1,0.9c0,0,0.1,0,0.1,0c0.6,0,1-0.5,0.9-1.1l-0.1-1.1  C26.5,43.6,26,43.2,25.4,43.3z"/><path d="M81.5,21.2c0,0.6,0.4,1,1,1h2.4c0.6,0,1-0.4,1-1s-0.4-1-1-1h-2.4C82,20.2,81.5,20.7,81.5,21.2z"/><path d="M79.6,17.3v-2.4c0-0.6-0.4-1-1-1s-1,0.4-1,1v2.4c0,0.6,0.4,1,1,1S79.6,17.8,79.6,17.3z"/><path d="M82.3,26.4c0.2,0.2,0.5,0.3,0.7,0.3s0.5-0.1,0.7-0.3c0.4-0.4,0.4-1,0-1.4l-1.7-1.7c-0.4-0.4-1-0.4-1.4,0s-0.4,1,0,1.4  L82.3,26.4z"/><path d="M74.8,16c-0.4-0.4-1-0.4-1.4,0s-0.4,1,0,1.4l1.7,1.7c0.2,0.2,0.5,0.3,0.7,0.3s0.5-0.1,0.7-0.3c0.4-0.4,0.4-1,0-1.4L74.8,16z  "/><path d="M81.4,19.5c0.3,0,0.5-0.1,0.7-0.3l1.7-1.7c0.4-0.4,0.4-1,0-1.4s-1-0.4-1.4,0l-1.7,1.7c-0.4,0.4-0.4,1,0,1.4  C80.8,19.4,81.1,19.5,81.4,19.5z"/><path d="M63.6,48.8c0.4,0.4,0.9,0.6,1.4,0.6s1-0.2,1.4-0.6l2.9-2.9c0.7-0.7,0.7-2,0-2.7l-2.9-2.9c-0.7-0.7-2-0.7-2.7,0l-2.9,2.9  c-0.7,0.7-0.7,2,0,2.7L63.6,48.8z M65,41.7l2.8,2.8L65,47.4l-2.8-2.8L65,41.7z"/><path d="M73.2,50.1l-4.1-0.6c-1-0.1-2,0.6-2.2,1.6l-0.6,4.1c-0.1,0.5,0.1,1,0.4,1.4c0.3,0.4,0.8,0.7,1.3,0.7l4.1,0.6  c0.1,0,0.2,0,0.3,0c0.9,0,1.8-0.7,1.9-1.6l0.6-4.1c0.1-0.5-0.1-1-0.4-1.4C74.2,50.5,73.7,50.2,73.2,50.1z M72.3,56l-3.9-0.6l0.6-3.9  l3.9,0.6L72.3,56z"/><path d="M66.2,58.7l-3.8-1.6c-0.5-0.2-1-0.2-1.5,0c-0.5,0.2-0.8,0.6-1,1l-1.6,3.8c-0.2,0.5-0.2,1,0,1.5c0.2,0.5,0.6,0.8,1,1l3.8,1.6  c0.2,0.1,0.5,0.1,0.7,0.1c0.2,0,0.5,0,0.7-0.1c0.5-0.2,0.8-0.6,1-1l1.6-3.8c0.2-0.5,0.2-1,0-1.5C67.1,59.2,66.7,58.9,66.2,58.7z   M63.9,64.2l-3.7-1.5l1.5-3.7l3.7,1.5L63.9,64.2z"/><path d="M15.6,44.5c-4.5,18.8-1.1,30.1,9.8,33.6v10.1h-6.5c-0.6,0-1,0.4-1,1s0.4,1,1,1h15c0.6,0,1-0.4,1-1s-0.4-1-1-1h-6.5v-10  c11-3.5,14.4-14.8,9.9-33.7c-1.1-4.6-0.9-9.3-0.2-13.2c0.9,0.2,1.7,0.3,2.5,0.3c2.3,0,4.4-0.7,6.2-2.1c2.5-2,4-5.1,4-8.4  c0-6-4.9-10.9-10.9-10.9c-5.7,0-10.4,4.4-10.8,10H13.9c-0.3,0-0.7,0.2-0.8,0.5c-0.2,0.3-0.2,0.6-0.1,1  C13.1,21.7,18.2,33.3,15.6,44.5z M26.4,76.4c-10.3-3-13.2-13.3-8.9-31.4c1-4.1,1-8.2,0.6-11.8l0.2-0.2c1.2-0.9,2.2-1.7,4.1-1.7  c1.9,0,2.9,0.8,4.1,1.7c1.3,1,2.7,2.1,5.3,2.1c1.2,0,2.2-0.3,3-0.6c-0.3,3.3-0.2,6.9,0.7,10.5C39.6,63.1,36.7,73.4,26.4,76.4z   M38.9,12.2c4.9,0,8.9,4,8.9,8.9c0,2.7-1.2,5.2-3.3,6.8c-1.4,1.1-3.7,2.1-7.1,1.4c1-4.5,2.4-7.6,2.4-7.7c0.1-0.3,0.1-0.7-0.1-1  c-0.2-0.3-0.5-0.5-0.8-0.5h-8.8C30.5,15.7,34.3,12.2,38.9,12.2z M37.4,22.2c-0.7,1.9-1.9,5.4-2.5,9.8l0,0c-0.8,0.6-1.7,1.1-3.3,1.1  c-1.9,0-2.9-0.8-4.1-1.7c-1.3-1-2.7-2.1-5.3-2.1c-2.1,0-3.5,0.8-4.6,1.6c-0.7-3.9-1.7-7-2.4-8.7H37.4z"/><path d="M41.9,21.1c0,0.6,0.4,1,1,1h2.4c0.6,0,1-0.4,1-1s-0.4-1-1-1h-2.4C42.3,20.1,41.9,20.5,41.9,21.1z"/><path d="M39.9,17.1v-2.4c0-0.6-0.4-1-1-1s-1,0.4-1,1v2.4c0,0.6,0.4,1,1,1S39.9,17.7,39.9,17.1z"/><path d="M42.7,26.3c0.2,0.2,0.5,0.3,0.7,0.3s0.5-0.1,0.7-0.3c0.4-0.4,0.4-1,0-1.4l-1.7-1.7c-0.4-0.4-1-0.4-1.4,0s-0.4,1,0,1.4  L42.7,26.3z"/><path d="M35.1,15.9c-0.4-0.4-1-0.4-1.4,0s-0.4,1,0,1.4l1.7,1.7c0.2,0.2,0.5,0.3,0.7,0.3s0.5-0.1,0.7-0.3c0.4-0.4,0.4-1,0-1.4  L35.1,15.9z"/><path d="M41.7,19.3c0.3,0,0.5-0.1,0.7-0.3l1.7-1.7c0.4-0.4,0.4-1,0-1.4s-1-0.4-1.4,0L41,17.6c-0.4,0.4-0.4,1,0,1.4  C41.2,19.2,41.5,19.3,41.7,19.3z"/><text x="0" y="115" fill="#000000" font-size="5px" font-weight="bold" font-family="'Helvetica Neue', Helvetica, Arial-Unicode, Arial, Sans-serif">Created by Made by Made</text><text x="0" y="120" fill="#000000" font-size="5px" font-weight="bold" font-family="'Helvetica Neue', Helvetica, Arial-Unicode, Arial, Sans-serif">from the Noun Project</text></svg>