<svg xmlns="http://www.w3.org/2000/svg" xmlns:xlink="http://www.w3.org/1999/xlink" version="1.1" x="0px" y="0px" viewBox="0 0 100 125" style="enable-background:new 0 0 100 100;" xml:space="preserve"><style type="text/css">
	.st0{fill:none;stroke:#000000;stroke-width:2;stroke-miterlimit:10;}
	.st1{fill:none;stroke:#000000;stroke-width:2;stroke-linecap:round;stroke-linejoin:round;stroke-miterlimit:10;}
</style><g><path d="M41.5,27.7h-7.3c-4.1,0-7.5,3.4-7.5,7.5v12.1v24.5v11.6c0,3.8,3.1,6.9,6.9,6.9h34.2c3.8,0,6.9-3.1,6.9-6.9V71.9V47.4V35.2   c0-2-0.8-3.9-2.2-5.3c-1.4-1.4-3.3-2.2-5.3-2.2l-7.2,0c0,0,0,0,0,0c-0.8,0-1.6-0.3-2.1-0.9c-0.6-0.6-0.9-1.3-0.9-2.1v-2h1.3   c0.6,0,1-0.4,1-1v-9.4c0-0.6-0.4-1-1-1h-15c-0.6,0-1,0.4-1,1v9.4c0,0.6,0.4,1,1,1h1.3v2C44.5,26.4,43.1,27.7,41.5,27.7z M72.6,70.9   H61.2c-0.2,0-0.5,0.1-0.7,0.2c-2.7,2.4-6.2,3.7-9.9,3.7s-7.1-1.3-9.9-3.7c-0.2-0.2-0.4-0.2-0.7-0.2H28.7V48.4h12.1   c0.2,0,0.4-0.1,0.6-0.2c2.7-2.1,5.9-3.3,9.3-3.3c3.4,0,6.6,1.1,9.3,3.3c0.2,0.1,0.4,0.2,0.6,0.2h12.1V70.9z M67.8,88.3H33.5   c-2.7,0-4.9-2.2-4.9-4.9V72.9h11.1c3.1,2.6,6.9,4,10.9,4c4,0,7.8-1.4,10.9-4h11.1v10.6C72.6,86.2,70.4,88.3,67.8,88.3z M44.2,13.3   h13v7.4h-1.3H45.5h-1.3V13.3z M54.8,22.7v2c0,1.3,0.5,2.6,1.5,3.6c0.9,0.9,2.2,1.5,3.5,1.5c0,0,0,0,0,0l7.2,0c0,0,0,0,0,0   c1.5,0,2.8,0.6,3.9,1.6c1,1,1.6,2.4,1.6,3.9v11.2H60.9c-3-2.3-6.5-3.5-10.3-3.5c-3.7,0-7.3,1.2-10.3,3.5H28.7V35.2   c0-3,2.5-5.5,5.5-5.5h7.3c2.8,0,5-2.3,5-5v-2H54.8z"/><path d="M50.9,54c-3.2,0-5.7,2.6-5.7,5.7c0,3.2,2.6,5.7,5.7,5.7s5.7-2.6,5.7-5.7C56.6,56.6,54,54,50.9,54z M50.9,63.5   c-2.1,0-3.7-1.7-3.7-3.7c0-2.1,1.7-3.7,3.7-3.7s3.7,1.7,3.7,3.7C54.6,61.8,52.9,63.5,50.9,63.5z"/><path d="M50.9,52.7c0.6,0,1-0.4,1-1v-2.8c0-0.6-0.4-1-1-1s-1,0.4-1,1v2.8C49.9,52.2,50.3,52.7,50.9,52.7z"/><path d="M54.4,53.6c0.2,0.1,0.3,0.1,0.5,0.1c0.3,0,0.7-0.2,0.9-0.5l1.4-2.4c0.3-0.5,0.1-1.1-0.4-1.4c-0.5-0.3-1.1-0.1-1.4,0.4   L54,52.2C53.7,52.7,53.9,53.3,54.4,53.6z"/><path d="M59.7,53.3l-2.4,1.4c-0.5,0.3-0.6,0.9-0.4,1.4c0.2,0.3,0.5,0.5,0.9,0.5c0.2,0,0.3,0,0.5-0.1l2.4-1.4   c0.5-0.3,0.6-0.9,0.4-1.4C60.8,53.2,60.2,53.1,59.7,53.3z"/><path d="M57.9,59.6c0,0.5,0.5,1,1,1c0,0,0,0,0,0l2.8,0c0.6,0,1-0.5,1-1c0-0.5-0.5-1-1-1c0,0,0,0,0,0l-2.8,0   C58.4,58.6,57.9,59.1,57.9,59.6z"/><path d="M60.9,64.1l-2.5-1.3c-0.5-0.3-1.1-0.1-1.4,0.4c-0.3,0.5-0.1,1.1,0.4,1.4l2.5,1.3c0.2,0.1,0.3,0.1,0.5,0.1   c0.4,0,0.7-0.2,0.9-0.5C61.5,65,61.4,64.4,60.9,64.1z"/><path d="M55.9,66.1c-0.3-0.5-0.9-0.6-1.4-0.3c-0.5,0.3-0.6,0.9-0.3,1.4l1.5,2.4c0.2,0.3,0.5,0.5,0.9,0.5c0.2,0,0.4,0,0.5-0.1   c0.5-0.3,0.6-0.9,0.3-1.4L55.9,66.1z"/><path d="M51.1,66.8c-0.6,0-1,0.5-1,1l0.1,2.8c0,0.5,0.5,1,1,1c0,0,0,0,0,0c0.6,0,1-0.5,1-1l-0.1-2.8C52.1,67.2,51.6,66.7,51.1,66.8   z"/><path d="M47.6,66c-0.5-0.3-1.1-0.1-1.4,0.4l-1.3,2.5c-0.3,0.5-0.1,1.1,0.4,1.4c0.1,0.1,0.3,0.1,0.5,0.1c0.4,0,0.7-0.2,0.9-0.5   l1.3-2.5C48.2,66.9,48.1,66.2,47.6,66z"/><path d="M44.9,63.5c-0.3-0.5-0.9-0.6-1.4-0.3l-2.4,1.5c-0.5,0.3-0.6,0.9-0.3,1.4c0.2,0.3,0.5,0.5,0.8,0.5c0.2,0,0.4-0.1,0.5-0.2   l2.4-1.5C45.1,64.6,45.2,64,44.9,63.5z"/><path d="M43.8,60.1c0-0.6-0.5-1-1-0.9L40,59.3c-0.6,0-1,0.5-0.9,1c0,0.5,0.5,1,1,1c0,0,0,0,0.1,0l2.8-0.1   C43.4,61.1,43.8,60.6,43.8,60.1z"/><path d="M40.7,55.7l2.5,1.3c0.1,0.1,0.3,0.1,0.5,0.1c0.4,0,0.7-0.2,0.9-0.5c0.2-0.5,0.1-1.1-0.4-1.3l-2.5-1.3   c-0.5-0.2-1.1-0.1-1.3,0.4C40,54.9,40.2,55.5,40.7,55.7z"/><path d="M45.6,53.6c0.2,0.3,0.5,0.4,0.8,0.4c0.2,0,0.4-0.1,0.6-0.2c0.5-0.3,0.6-0.9,0.3-1.4l-1.5-2.3c-0.3-0.5-0.9-0.6-1.4-0.3   c-0.5,0.3-0.6,0.9-0.3,1.4L45.6,53.6z"/></g><text x="0" y="115" fill="#000000" font-size="5px" font-weight="bold" font-family="'Helvetica Neue', Helvetica, Arial-Unicode, Arial, Sans-serif">Created by Made</text><text x="0" y="120" fill="#000000" font-size="5px" font-weight="bold" font-family="'Helvetica Neue', Helvetica, Arial-Unicode, Arial, Sans-serif">from the Noun Project</text></svg>