<svg xmlns="http://www.w3.org/2000/svg" xmlns:xlink="http://www.w3.org/1999/xlink" version="1.1" x="0px" y="0px" viewBox="0 0 100 125" enable-background="new 0 0 100 100" xml:space="preserve"><g><g><path fill="#000000" d="M66.7,35.3c-0.6-10.2-9.1-18.3-19.5-18.3c-10.8,0-19.5,8.8-19.5,19.5V83c0,0.8,0.7,1.5,1.5,1.5    s1.5-0.7,1.5-1.5V36.5c0-9.1,7.4-16.5,16.5-16.5c8.7,0,15.9,6.8,16.5,15.4c-5.4,0.8-9.5,5.4-9.5,10.9c0,0.8,0.7,1.5,1.5,1.5h8V51    c0,0.8,0.7,1.5,1.5,1.5s1.5-0.7,1.5-1.5v-3.2h8c0.8,0,1.5-0.7,1.5-1.5C76.3,40.6,72.1,36,66.7,35.3z M57.4,44.7    c0.7-3.7,4-6.5,7.9-6.5s7.2,2.8,7.9,6.5H57.4z"/><path fill="#000000" d="M65.3,54.2c-0.8,0-1.5,0.7-1.5,1.5v4.7c0,0.8,0.7,1.5,1.5,1.5s1.5-0.7,1.5-1.5v-4.7    C66.8,54.9,66.1,54.2,65.3,54.2z"/><path fill="#000000" d="M72.6,49.5c-0.8,0-1.5,0.7-1.5,1.5v4.7c0,0.8,0.7,1.5,1.5,1.5s1.5-0.7,1.5-1.5V51    C74.1,50.1,73.5,49.5,72.6,49.5z"/><path fill="#000000" d="M57.9,49.5c-0.8,0-1.5,0.7-1.5,1.5v4.7c0,0.8,0.7,1.5,1.5,1.5s1.5-0.7,1.5-1.5V51    C59.4,50.1,58.7,49.5,57.9,49.5z"/><path fill="#000000" d="M72.6,59.2c-0.8,0-1.5,0.7-1.5,1.5v4.7c0,0.8,0.7,1.5,1.5,1.5s1.5-0.7,1.5-1.5v-4.7    C74.1,59.9,73.5,59.2,72.6,59.2z"/><path fill="#000000" d="M57.9,59.2c-0.8,0-1.5,0.7-1.5,1.5v4.7c0,0.8,0.7,1.5,1.5,1.5s1.5-0.7,1.5-1.5v-4.7    C59.4,59.9,58.7,59.2,57.9,59.2z"/></g></g><text x="0" y="115" fill="#000000" font-size="5px" font-weight="bold" font-family="'Helvetica Neue', Helvetica, Arial-Unicode, Arial, Sans-serif">Created by Gorris Valentin</text><text x="0" y="120" fill="#000000" font-size="5px" font-weight="bold" font-family="'Helvetica Neue', Helvetica, Arial-Unicode, Arial, Sans-serif">from the Noun Project</text></svg>