<svg xmlns="http://www.w3.org/2000/svg" xmlns:xlink="http://www.w3.org/1999/xlink" version="1.1" x="0px" y="0px" viewBox="0 0 512 640" enable-background="new 0 0 512 512" xml:space="preserve"><path d="M256.004,0C114.848,0,0.012,114.844,0.012,256s114.836,256,255.992,256  c141.141,0,255.984-114.844,255.984-256S397.145,0,256.004,0z M435.457,99.984c13.828,15.891,25.469,33.5,34.594,52.344l2.641,5.469  l-74.328,30.781l-2.406-4.672c-5.031-9.781-11.141-19.047-18.156-27.625l-3.281-4.016l56.906-56.922L435.457,99.984z M395.191,256  c0,37.188-14.484,72.141-40.766,98.422c-26.297,26.297-61.25,40.781-98.422,40.781s-72.141-14.484-98.438-40.781  c-26.297-26.281-40.766-61.234-40.766-98.422s14.469-72.125,40.766-98.406c26.266-26.312,61.234-40.781,98.438-40.781  s72.172,14.469,98.422,40.781C380.707,183.875,395.191,218.812,395.191,256z M361.957,43.094  c18.812,9.375,36.344,21.234,52.125,35.281l4.531,4.031l-56.875,56.875l-4.016-3.406c-8.516-7.203-17.766-13.5-27.484-18.719  l-4.578-2.438l30.797-74.375L361.957,43.094z M179.551,30.75c49.609-16.844,105.031-16.625,154.375,0.516l5.75,1.984l-30.797,74.344  L303.863,106c-30.438-9.703-63.719-9.875-94.312-0.438l-5,1.547L173.77,32.703L179.551,30.75z M98.816,77.562  c15.922-14.047,33.641-25.875,52.641-35.188l5.469-2.688L187.723,114l-4.641,2.438c-9.875,5.188-19.266,11.469-27.938,18.688  l-4,3.359L94.254,81.594L98.816,77.562z M42.238,151.75c9.289-19.047,21.102-36.766,35.109-52.688l4.047-4.594l56.875,56.906  l-3.344,4c-7.156,8.625-13.406,18.031-18.594,27.969L113.895,188l-74.32-30.797L42.238,151.75z M31.324,334.094  c-8.703-25-13.117-51.281-13.117-78.094c0-26.094,4.195-51.719,12.461-76.156l1.961-5.781l74.375,30.781l-1.531,4.969  c-4.578,14.906-6.891,30.438-6.891,46.188c0,16.375,2.516,32.531,7.469,48l1.594,5.031l-74.328,30.781L31.324,334.094z   M78.379,414.094c-14.031-15.75-25.891-33.25-35.242-52.031l-2.734-5.484l74.367-30.812l2.453,4.562  c5.234,9.766,11.516,18.984,18.641,27.391l3.422,4.031l-56.859,56.875L78.379,414.094z M152.207,470  c-18.844-9.156-36.406-20.781-52.219-34.547l-4.625-4.016l56.906-56.922l4,3.297c8.594,7.031,17.859,13.109,27.516,18.078  l4.688,2.406l-30.797,74.344L152.207,470z M333.145,481c-24.719,8.469-50.672,12.75-77.141,12.75  c-25.953,0-51.422-4.109-75.656-12.25l-5.812-1.969l30.812-74.375l4.969,1.5c30.172,9.125,63.109,8.906,92.797-0.438l5-1.562  l30.797,74.359L333.145,481z M412.926,434.641c-15.719,13.828-33.125,25.484-51.719,34.641l-5.484,2.688l-30.797-74.312l4.594-2.438  c9.594-5.078,18.703-11.188,27.094-18.156l4-3.344l56.875,56.906L412.926,434.641z M469.145,361.469  c-9.219,18.672-20.906,36.047-34.734,51.703l-4.031,4.578l-56.859-56.891l3.344-4.031c7-8.359,13.109-17.453,18.203-27.016  l2.453-4.609l74.344,30.781L469.145,361.469z M478.895,339.219l-74.312-30.844l1.562-5c4.812-15.266,7.25-31.203,7.25-47.375  c0-15.531-2.25-30.844-6.688-45.562l-1.5-4.969l74.375-30.812l1.953,5.812c8.141,24.219,12.25,49.625,12.25,75.531  c0,26.594-4.344,52.656-12.891,77.469L478.895,339.219z"/><text x="0" y="527" fill="#000000" font-size="5px" font-weight="bold" font-family="'Helvetica Neue', Helvetica, Arial-Unicode, Arial, Sans-serif">Created by lastspark</text><text x="0" y="532" fill="#000000" font-size="5px" font-weight="bold" font-family="'Helvetica Neue', Helvetica, Arial-Unicode, Arial, Sans-serif">from the Noun Project</text></svg>