<svg xmlns="http://www.w3.org/2000/svg" xmlns:xlink="http://www.w3.org/1999/xlink" version="1.1" x="0px" y="0px" viewBox="0 0 100 125" style="enable-background:new 0 0 100 100;" xml:space="preserve"><style type="text/css">
	.st0{fill:none;stroke:#000000;stroke-width:2;stroke-miterlimit:10;}
	.st1{fill:none;stroke:#000000;stroke-width:2;stroke-linecap:round;stroke-linejoin:round;stroke-miterlimit:10;}
</style><g><path d="M31.7,23.2c0,0.6,0.4,1,1,1s1-0.4,1-1c0-1.7-0.7-3.3-2-4.4c-0.4-0.4-1-0.3-1.4,0.1c-0.4,0.4-0.3,1,0.1,1.4   C31.2,21.1,31.7,22.1,31.7,23.2z"/><path d="M32.9,26c-0.6,0-1,0.5-0.9,1.1l1,13.4c0,0.5,0.5,0.9,1,0.9c0,0,0.1,0,0.1,0c0.6,0,1-0.5,0.9-1.1l-1-13.4   C33.9,26.4,33.4,26,32.9,26z"/><path d="M28.8,89.8c2.4,0,4.4-2,4.4-4.4V70.1H38c2.3,0,4.2-1.9,4.2-4.3L38.9,21c0-4.5-3.6-8.1-8.1-8.1h-3.9c-4.5,0-8.1,3.6-8.1,8   l-3.4,44.9c0,2.3,1.9,4.2,4.2,4.2h4.8v15.3C24.5,87.8,26.4,89.8,28.8,89.8z M31.2,85.4c0,1.3-1.1,2.4-2.4,2.4s-2.4-1.1-2.4-2.4   V70.1h4.8V85.4z M20.8,21c0-3.4,2.7-6.1,6.1-6.1h3.9c3.4,0,6.1,2.7,6.1,6.2L40,61.9c-0.6,0.5-1.3,0.8-2.1,0.8c-1.7,0-2.5-1-3.7-2.6   c-1.2-1.6-2.6-3.4-5.3-3.4c-2.8,0-4.1,1.8-5.3,3.4c-1.2,1.6-2,2.6-3.7,2.6c-0.8,0-1.5-0.3-2.1-0.8L20.8,21z M17.4,66l0.1-1.8   c0.7,0.3,1.5,0.5,2.3,0.5c2.8,0,4.1-1.8,5.3-3.4c1.2-1.6,2-2.6,3.7-2.6c1.7,0,2.5,1,3.7,2.6c1.2,1.6,2.6,3.4,5.3,3.4   c0.8,0,1.6-0.2,2.3-0.5l0.1,1.7c0,1.2-1,2.2-2.2,2.2H19.6C18.4,68.1,17.4,67.1,17.4,66z"/><path d="M71.2,23c3.6,2.1,5.9,6,5.9,10.1c0,0.6,0.4,1,1,1s1-0.4,1-1c0-4.9-2.6-9.4-6.8-11.9c-0.5-0.3-1.1-0.1-1.4,0.4   C70.5,22.1,70.7,22.8,71.2,23z"/><path d="M78,36.9c-0.6,0-1,0.4-1,1v8.9c0,0.6,0.4,1,1,1s1-0.4,1-1v-8.9C79,37.4,78.6,36.9,78,36.9z"/><path d="M65.5,90.4c2.4,0,4.4-2,4.4-4.4V70.7h10.5c2.3,0,4.2-1.9,4.2-4.2V32.6c0-10.5-8.6-19.1-19.1-19.1s-19.1,8.6-19.1,19.1v25   c0,0,0,0,0,0.1s0,0,0,0.1v8.7c0,2.3,1.9,4.2,4.2,4.2h10.5V86C61.1,88.5,63.1,90.4,65.5,90.4z M67.9,86c0,1.3-1.1,2.4-2.4,2.4   s-2.4-1.1-2.4-2.4V70.7h4.8V86z M65.5,15.5c9.4,0,17.1,7.7,17.1,17.1v24.1c-2.2,0.3-3.4,1.9-4.5,3.3c-1.2,1.6-2,2.6-3.7,2.6   s-2.5-1-3.7-2.6c-1.2-1.6-2.6-3.4-5.3-3.4c-2.8,0-4.1,1.8-5.3,3.4c-1.2,1.6-2,2.6-3.7,2.6s-2.5-1-3.7-2.6c-1-1.4-2.2-2.9-4.3-3.3   V32.6C48.4,23.2,56.1,15.5,65.5,15.5z M48.4,66.5v-7.6c1,0.3,1.8,1.2,2.7,2.4c1.2,1.6,2.6,3.4,5.3,3.4s4.1-1.8,5.3-3.4   c1.2-1.6,2-2.6,3.7-2.6c1.7,0,2.5,1,3.7,2.6c1.2,1.6,2.6,3.4,5.3,3.4s4.1-1.8,5.3-3.4c1-1.3,1.7-2.2,2.9-2.5v7.7   c0,1.2-1,2.2-2.2,2.2H50.6C49.4,68.7,48.4,67.7,48.4,66.5z"/></g><text x="0" y="115" fill="#000000" font-size="5px" font-weight="bold" font-family="'Helvetica Neue', Helvetica, Arial-Unicode, Arial, Sans-serif">Created by Made</text><text x="0" y="120" fill="#000000" font-size="5px" font-weight="bold" font-family="'Helvetica Neue', Helvetica, Arial-Unicode, Arial, Sans-serif">from the Noun Project</text></svg>