<svg xmlns="http://www.w3.org/2000/svg" xmlns:xlink="http://www.w3.org/1999/xlink" version="1.1" x="0px" y="0px" viewBox="0 0 100 125" style="enable-background:new 0 0 100 100;" xml:space="preserve"><style type="text/css">
	.st0{fill:none;stroke:#000000;stroke-width:2;stroke-miterlimit:10;}
	.st1{fill:none;stroke:#000000;stroke-width:2;stroke-linecap:round;stroke-linejoin:round;stroke-miterlimit:10;}
</style><g><path d="M29,92.6c0.6,0,1-0.4,1-1V88h3.3v3.6c0,0.6,0.4,1,1,1s1-0.4,1-1V88h3.3v3.6c0,0.6,0.4,1,1,1s1-0.4,1-1V88h3.3v3.6   c0,0.6,0.4,1,1,1s1-0.4,1-1V88H49v3.6c0,0.6,0.4,1,1,1s1-0.4,1-1V88h3.3v3.6c0,0.6,0.4,1,1,1s1-0.4,1-1V88h3.3v3.6c0,0.6,0.4,1,1,1   s1-0.4,1-1V88h3.3v3.6c0,0.6,0.4,1,1,1s1-0.4,1-1V88H70v3.6c0,0.6,0.4,1,1,1s1-0.4,1-1v-4.4c0,0,0-0.1,0-0.1c0,0,0-0.1,0-0.1V16.2   c0-0.1,0-0.2,0-0.2c0-0.1,0-0.2,0-0.2v-4.4c0-0.6-0.4-1-1-1s-1,0.4-1,1v3.8h-3.3v-3.8c0-0.6-0.4-1-1-1s-1,0.4-1,1v3.8h-3.3v-3.8   c0-0.6-0.4-1-1-1s-1,0.4-1,1v3.8h-3.3v-3.8c0-0.6-0.4-1-1-1s-1,0.4-1,1v3.8H51v-3.8c0-0.6-0.4-1-1-1s-1,0.4-1,1v3.8h-3.3v-3.8   c0-0.6-0.4-1-1-1s-1,0.4-1,1v3.8h-3.3v-3.8c0-0.6-0.4-1-1-1s-1,0.4-1,1v3.8h-3.3v-3.8c0-0.6-0.4-1-1-1s-1,0.4-1,1v3.8H30v-3.8   c0-0.6-0.4-1-1-1s-1,0.4-1,1v4.4c0,0.1,0,0.2,0,0.2c0,0.1,0,0.2,0,0.2V87c0,0,0,0.1,0,0.1c0,0,0,0.1,0,0.1v4.4   C28,92.2,28.4,92.6,29,92.6z M70,69.6H30V34h40V69.6z M30,71.6h40v4.3H30V71.6z M70,32H30v-4.3h40V32z M30,77.9h40V86H30V77.9z    M70,25.8H30v-8.5h40V25.8z"/></g><text x="0" y="115" fill="#000000" font-size="5px" font-weight="bold" font-family="'Helvetica Neue', Helvetica, Arial-Unicode, Arial, Sans-serif">Created by Made</text><text x="0" y="120" fill="#000000" font-size="5px" font-weight="bold" font-family="'Helvetica Neue', Helvetica, Arial-Unicode, Arial, Sans-serif">from the Noun Project</text></svg>