<svg xmlns="http://www.w3.org/2000/svg" xmlns:xlink="http://www.w3.org/1999/xlink" version="1.1" x="0px" y="0px" viewBox="0 0 100 125" enable-background="new 0 0 100 100" xml:space="preserve"><path d="M82.85,31.915c-0.684-1.047-1.873-1.527-3.176-1.295c-2.469,0.447-3.986,0.115-5.693-0.693  c-0.471-1.539-1.212-3.043-2.259-4.438c-3.144-4.192-8.208-6.442-13.557-6.001c-8.133,0.662-12.908,6.754-13.271,12.15  c-0.386,5.701,2.598,8.943,4.572,11.089c0.669,0.728,1.361,1.479,1.518,1.93c0.46,1.322-0.047,1.927-0.511,2.18  c-0.123,0.059-0.239,0.13-0.349,0.212c-5.586,4.229-19.049,1.001-27.697-6.644c-0.455-0.402-1.064-0.575-1.665-0.473  c-0.598,0.103-1.116,0.472-1.41,1.002c-0.188,0.342-4.599,8.455-1.905,16.392c0.503,1.481,1.236,2.839,2.152,4.095  c-0.49,4.688,0.712,8.884,3.545,12.166c4.449,5.153,11.77,6.981,16.688,6.981c2.43,0,4.702-0.232,6.794-0.678  c1.175,0.397,3.135,0.678,6.456,0.678c5.975,0,10.951-2.355,13.397-4.373c8.644-7.131,6.961-20.15,1.949-26.346  c-0.904-1.119-1.256-1.915-1.173-2.661c0.125-1.124,1.287-2.26,2.239-3.014c1.023-0.811,1.887-1.731,2.605-2.725  c0.533,0.057,1.056,0.091,1.564,0.091c3.75,0,6.812-1.539,8.794-4.479C83.58,35.396,83.741,33.28,82.85,31.915z M67.012,41.037  c-2.254,1.785-3.51,3.706-3.732,5.709c-0.271,2.441,1.034,4.375,2.039,5.618c3.877,4.794,5.266,15.258-1.385,20.744  c-1.396,1.151-4.787,3.012-9.257,3.387c2.097-1.501,3.734-3.388,4.812-5.626c1.273-2.645,2.232-8.859-3.246-13.459  c-0.846-0.709-2.106-0.6-2.818,0.246c-0.71,0.847-0.6,2.107,0.246,2.818c3.597,3.019,3.021,6.983,2.215,8.659  c-2.241,4.654-8.242,7.434-16.054,7.434c-4.395,0-10.322-1.73-13.659-5.596c-1.403-1.625-2.261-3.52-2.571-5.66  c1.273,0.905,2.695,1.722,4.307,2.424c1.014,0.439,2.19-0.022,2.633-1.035c0.44-1.013-0.022-2.191-1.035-2.633  c-4.309-1.877-7.09-4.57-8.264-8.006c-1.387-4.06-0.305-8.39,0.633-10.94c10.087,7.687,23.759,10.157,30.521,5.224  c1.503-0.823,3.695-3.186,2.367-7.002c-0.429-1.234-1.363-2.249-2.353-3.324c-1.778-1.934-3.794-4.124-3.525-8.111  c0.252-3.73,3.704-7.953,9.605-8.434c5.881-0.486,9.165,3.258,10.033,4.415C72.176,32.759,70.471,38.299,67.012,41.037z   M79.136,34.833c-1.139,1.687-2.879,2.592-5.102,2.688c0.301-1.014,0.477-2.059,0.523-3.117c1.363,0.376,2.846,0.528,4.642,0.326  C79.18,34.765,79.158,34.799,79.136,34.833z M64.07,28.962c-1.381,0-2.499,1.119-2.499,2.5c0,1.38,1.118,2.499,2.499,2.499  c1.382,0,2.5-1.119,2.5-2.499C66.57,30.081,65.452,28.962,64.07,28.962z"/><text x="0" y="115" fill="#000000" font-size="5px" font-weight="bold" font-family="'Helvetica Neue', Helvetica, Arial-Unicode, Arial, Sans-serif">Created by Sergey Demushkin</text><text x="0" y="120" fill="#000000" font-size="5px" font-weight="bold" font-family="'Helvetica Neue', Helvetica, Arial-Unicode, Arial, Sans-serif">from the Noun Project</text></svg>