<svg xmlns="http://www.w3.org/2000/svg" data-name="Layer 1" viewBox="0 0 100 125" x="0px" y="0px"><title>TiNY2_BASICS</title><path d="M94.12,35.61a62.4,62.4,0,0,0-88.24,0,3,3,0,1,0,4.24,4.24,56.4,56.4,0,0,1,79.76,0,3,3,0,1,0,4.24-4.24Z"/><path d="M50,33a46.46,46.46,0,0,0-33.07,13.7,3,3,0,1,0,4.24,4.24,40.77,40.77,0,0,1,57.65,0,3,3,0,1,0,4.24-4.24A46.46,46.46,0,0,0,50,33Z"/><path d="M50,48.6a30.93,30.93,0,0,0-22,9.12A3,3,0,0,0,32.23,62a25.14,25.14,0,0,1,35.55,0A3,3,0,0,0,72,57.72,30.93,30.93,0,0,0,50,48.6Z"/><path d="M50,64.23a15.4,15.4,0,0,0-11,4.54A3,3,0,0,0,39,73l8.77,8.77a3,3,0,0,0,4.22,0L60.95,73a3,3,0,0,0,0-4.26A15.4,15.4,0,0,0,50,64.23Z"/><text x="0" y="115" fill="#000000" font-size="5px" font-weight="bold" font-family="'Helvetica Neue', Helvetica, Arial-Unicode, Arial, Sans-serif">Created by Wouter Buning</text><text x="0" y="120" fill="#000000" font-size="5px" font-weight="bold" font-family="'Helvetica Neue', Helvetica, Arial-Unicode, Arial, Sans-serif">from the Noun Project</text></svg>