<?xml version="1.0" encoding="utf-8"?>
<!-- Generator: Adobe Illustrator 16.0.0, SVG Export Plug-In . SVG Version: 6.00 Build 0)  -->
<!DOCTYPE svg PUBLIC "-//W3C//DTD SVG 1.1//EN" "http://www.w3.org/Graphics/SVG/1.1/DTD/svg11.dtd">
<svg version="1.1" id="Layer_1" xmlns="http://www.w3.org/2000/svg" xmlns:xlink="http://www.w3.org/1999/xlink" x="0px" y="0px"
	 width="400px" height="400px" viewBox="0 0 400 400" enable-background="new 0 0 400 400" xml:space="preserve">
<g>
	<path fill="#010202" d="M107.939,52.283c-20.069,0-36.439,16.371-36.439,36.439v200.152c0,1.584,0,38.025,25.349,52.811
		c2.641,1.586,10.035,7.395,11.091,13.732l1.056,35.91c0,4.754,4.225,8.451,8.979,8.451l0,0c4.752,0,8.978-4.225,8.449-8.979
		l-0.528-35.912v-0.527c-1.584-16.371-17.956-26.406-19.54-27.461c-16.899-9.508-16.899-36.969-16.899-37.496V89.25
		c0-10.562,8.45-18.483,18.484-18.483c10.035,0,18.484,8.45,18.484,18.483v59.149v23.237v38.552
		c0,20.068,16.371,36.439,36.44,36.439c8.449,0,16.371-2.641,22.18-7.922c5.81,12.146,18.484,21.125,32.743,21.125
		c16.9,0,31.687-11.619,35.384-27.99l15.314,5.809v2.641c-13.731,7.395-59.147,35.385-58.092,79.744
		c0,4.754,4.224,8.451,8.978,8.451l0,0c4.753,0,8.978-4.225,8.45-8.979c-1.056-39.08,51.227-64.957,51.755-64.957
		c2.641-1.057,4.225-3.17,4.752-5.809l3.697-13.732c1.056-4.223-1.056-8.979-5.282-10.561L236.27,207.02
		c-7.922-5.283-10.034-15.316-5.809-25.878c1.585-3.697,5.281-3.169,6.865-3.169c0.527,0,0.527,0,1.057,0
		c29.046,3.169,73.408,9.506,81.328,13.203c19.013,9.505,12.146,65.486,4.225,86.609c-7.393,20.068-34.855,81.328-35.382,81.857
		c-0.529,1.057-0.529,2.113-0.529,3.695v14.26c0,4.754,4.226,8.979,8.978,8.979c4.754,0,8.979-4.225,8.979-8.979v-12.676
		c4.754-10.561,27.99-62.314,34.855-81.326c7.393-19.014,21.651-91.893-13.204-109.32c-3.166-1.583-10.032-3.168-17.954-4.752
		l0.527-133.083C310.205,16.372,293.835,0,273.766,0c-20.068,0-36.439,16.372-36.439,36.439v79.745
		c-5.28-3.168-11.618-5.281-18.483-5.281c-11.091,0-21.125,4.753-27.462,12.674c-6.865-7.921-16.371-12.674-27.461-12.674
		c-6.865,0-13.202,2.113-18.484,5.281v-27.99C144.379,68.654,128.007,52.283,107.939,52.283z M255.282,36.968
		c0-10.563,8.45-18.484,18.483-18.484c10.034,0,18.484,8.45,18.484,18.484l-0.529,129.915c-13.202-2.113-27.461-3.697-38.023-5.282
		c0.529-1.056,1.056-2.641,1.056-3.696V36.968H255.282z M218.314,129.386c10.563,0,18.483,8.45,18.483,18.484v9.506
		c0,0.528,0,1.584,0,2.112c-7.394-0.528-18.483,2.112-23.236,14.259c-7.923,19.012-2.113,38.024,13.203,48.059
		c0.527,0.527,1.056,0.527,1.583,1.055l7.922,3.168c-1.057,8.979-8.978,16.373-18.483,16.373c-10.563,0-18.483-8.451-18.483-18.484
		v-13.203v-62.844C199.83,137.836,208.28,129.386,218.314,129.386z M163.391,129.386c10.563,0,18.484,8.45,18.484,18.484v61.788
		c0,10.563-8.45,18.484-18.484,18.484c-10.034,0-18.483-8.449-18.483-18.484v-38.551v-23.236
		C144.379,137.836,152.829,129.386,163.391,129.386z"/>
</g>
</svg>
