<?xml version="1.0" encoding="utf-8"?>
<!-- Generator: Adobe Illustrator 16.0.0, SVG Export Plug-In . SVG Version: 6.00 Build 0)  -->
<!DOCTYPE svg PUBLIC "-//W3C//DTD SVG 1.1//EN" "http://www.w3.org/Graphics/SVG/1.1/DTD/svg11.dtd">
<svg version="1.1" id="Layer_1" xmlns="http://www.w3.org/2000/svg" xmlns:xlink="http://www.w3.org/1999/xlink" x="0px" y="0px"
	 width="400px" height="400px" viewBox="0 0 400 400" enable-background="new 0 0 400 400" xml:space="preserve">
<path fill="#010202" d="M399.113,370.499L285.317,257.146c48.706-62.432,44.281-152.76-13.284-210.322
	c-62.431-62.433-163.385-62.433-225.375,0c-61.99,62.432-62.433,163.387,0,225.376c57.562,57.563,147.89,61.99,210.323,13.283
	L370.774,399.28L399.113,370.499z M74.997,243.862c-46.492-46.491-46.492-122.208,0-169.143c46.492-46.936,122.208-46.492,169.142,0
	c46.936,46.492,46.493,122.208,0,169.143C197.647,290.798,121.932,290.354,74.997,243.862z"/>
</svg>
