<?xml version="1.0" encoding="utf-8"?>
<!-- Generator: Adobe Illustrator 16.0.0, SVG Export Plug-In . SVG Version: 6.00 Build 0)  -->
<!DOCTYPE svg PUBLIC "-//W3C//DTD SVG 1.1//EN" "http://www.w3.org/Graphics/SVG/1.1/DTD/svg11.dtd">
<svg version="1.1" id="Layer_1" xmlns="http://www.w3.org/2000/svg" xmlns:xlink="http://www.w3.org/1999/xlink" x="0px" y="0px"
	 width="400px" height="400px" viewBox="0 0 400 400" enable-background="new 0 0 400 400" xml:space="preserve">
<g>
	<path fill="#010202" d="M274.268,126.322H125.734c-9.407,0-17.329,7.921-17.329,17.329s7.922,17.329,17.329,17.329h148.533
		c9.406,0,17.326-7.921,17.326-17.329S283.674,126.322,274.268,126.322z"/>
	<path fill="#010202" d="M274.268,180.288H125.734c-9.407,0-17.329,7.923-17.329,17.329c0,9.408,7.922,17.329,17.329,17.329h148.533
		c9.406,0,17.326-7.921,17.326-17.329C291.594,188.211,283.674,180.288,274.268,180.288z"/>
	<path fill="#010202" d="M274.268,240.197H125.734c-9.407,0-17.329,7.92-17.329,17.328c0,9.407,7.922,17.329,17.329,17.329h148.533
		c9.406,0,17.326-7.922,17.326-17.329C291.594,248.117,283.674,240.197,274.268,240.197z"/>
	<path fill="#010202" d="M395.566,197.122C395.566,89.189,307.934,1.555,200,1.555C92.067,1.555,4.433,89.189,4.433,197.122
		S92.067,392.689,200,392.689c21.786,0,43.073-3.466,63.374-10.398l99.021,17.329c0.99,0,1.98,0.496,2.971,0.496
		c5.445,0,10.398-2.477,13.367-6.437c3.961-4.951,4.953-11.883,2.477-17.329l-25.746-60.404
		c10.893-14.357,19.805-30.2,26.734-47.035C391.109,245.643,395.566,221.876,395.566,197.122z M350.016,255.545
		c-6.434,16.337-15.842,31.688-27.229,45.55c-4.457,4.951-5.447,11.882-2.971,17.823l17.328,40.599l-72.287-12.378
		c-0.988,0-1.979-0.495-2.969-0.495c-1.98,0-3.961,0.495-5.941,0.991c-17.824,6.931-36.639,9.901-55.948,9.901
		c-88.623,0-160.909-72.285-160.909-160.909S111.376,36.213,200,36.213c88.624,0,160.911,72.285,160.911,160.909
		C360.91,217.422,357.443,237.226,350.016,255.545z"/>
</g>
</svg>
