<?xml version="1.0" encoding="utf-8"?>
<!-- Generator: Adobe Illustrator 16.0.0, SVG Export Plug-In . SVG Version: 6.00 Build 0)  -->
<!DOCTYPE svg PUBLIC "-//W3C//DTD SVG 1.1//EN" "http://www.w3.org/Graphics/SVG/1.1/DTD/svg11.dtd">
<svg version="1.1" id="Layer_1" xmlns="http://www.w3.org/2000/svg" xmlns:xlink="http://www.w3.org/1999/xlink" x="0px" y="0px"
	 width="400px" height="400px" viewBox="0 0 400 400" enable-background="new 0 0 400 400" xml:space="preserve">
<g>
	<path fill="#010202" d="M253.717,0.26c-9.768,0-18.604,6.512-21.857,15.813c-4.652,13.488-17.674,22.79-32.091,22.79
		s-27.44-9.302-32.091-22.79c-3.256-9.301-12.092-15.813-21.86-15.813h-27.44c-20.463,0-37.206,16.744-37.206,37.208V362.56
		c0,20.464,16.743,37.207,37.206,37.207h21.86c10.696,0,19.533-7.441,22.324-17.674c3.72-14.882,17.208-25.578,33.021-25.578
		c15.813,0,29.299,10.696,33.02,25.578c2.791,10.232,11.627,17.674,22.326,17.674h30.693c20.465,0,37.207-16.743,37.207-37.207
		V37.467c0-20.464-16.742-37.208-37.207-37.208H253.717z M289.994,37.467v71.622h-14.883v27.906h14.883V362.56
		c0,5.115-4.186,9.302-9.301,9.302h-26.977c-7.906-25.579-31.625-43.253-59.065-43.253s-51.16,17.674-59.065,43.253h-18.139
		c-5.116,0-9.301-4.187-9.301-9.302V136.995h14.882v-27.906h-14.882V37.467c0-5.116,4.185-9.303,9.301-9.303h24.184
		c9.302,23.255,32.091,38.603,57.671,38.603c25.578,0,48.369-15.348,57.67-38.603h24.184
		C285.809,28.165,289.994,32.351,289.994,37.467z"/>
	<rect x="141.632" y="109.089" fill="#010202" width="26.045" height="27.906"/>
	<rect x="186.28" y="109.089" fill="#010202" width="26.044" height="27.906"/>
	<rect x="230.928" y="109.089" fill="#010202" width="26.045" height="27.906"/>
	<path fill="#010202" d="M245.811,196.525h-93.016c-7.906,0-13.953,6.045-13.953,13.953s6.047,13.952,13.953,13.952h93.016
		c7.906,0,13.953-6.045,13.953-13.952S253.717,196.525,245.811,196.525z"/>
	<path fill="#010202" d="M245.811,243.498h-93.016c-7.906,0-13.953,6.047-13.953,13.953s6.047,13.953,13.953,13.953h93.016
		c7.906,0,13.953-6.047,13.953-13.953S253.717,243.498,245.811,243.498z"/>
</g>
</svg>
