<?xml version="1.0" encoding="utf-8"?>
<!-- Generator: Adobe Illustrator 16.0.0, SVG Export Plug-In . SVG Version: 6.00 Build 0)  -->
<!DOCTYPE svg PUBLIC "-//W3C//DTD SVG 1.1//EN" "http://www.w3.org/Graphics/SVG/1.1/DTD/svg11.dtd">
<svg version="1.1" id="Layer_1" xmlns="http://www.w3.org/2000/svg" xmlns:xlink="http://www.w3.org/1999/xlink" x="0px" y="0px"
	 width="400px" height="400px" viewBox="0 0 400 400" enable-background="new 0 0 400 400" xml:space="preserve">
<path fill="#010202" d="M151.216,166.119c0-7.126,5.777-12.902,12.903-12.902c7.125,0,12.902,5.776,12.902,12.902
	s-5.777,12.902-12.902,12.902C156.993,179.021,151.216,173.245,151.216,166.119L151.216,166.119z M236.782,178.898
	c7.125,0.09,12.975-5.613,13.064-12.738c0.09-7.125-5.613-12.975-12.738-13.065c-7.125-0.09-12.975,5.613-13.064,12.738
	c-0.001,0.095-0.001,0.19-0.001,0.285C224.109,173.133,229.768,178.81,236.782,178.898z M-0.786,386.196
	c0-70.451,88.842-98.549,126.976-107.396c0.468-0.115,0.792-0.542,0.778-1.024v-14.909c-8.836-11.574-15.421-24.704-19.415-38.707
	c-10.035-9.83-14.459-25.272-16.834-33.874c-3.891-13.681-7.783-33.546,2.908-47.678l0.491-0.614
	c-0.696-4.096-1.229-8.192-1.556-12.288c-4.833-32.112-1.106-56.074,11.1-71.065c6.563-8.312,16.12-13.722,26.624-15.073
	c6.226-21.504,36.618-42.476,64.184-36.864c26.747,5.734,82.576-0.573,83.272-0.655c0.704-0.065,1.407,0.14,1.966,0.573
	c0.554,0.459,0.895,1.126,0.942,1.843c0.205,7.467-2.634,14.697-7.864,20.03c44.646,29.778,38.216,88.555,33.055,113.418l0.45,0.614
	c10.69,14.172,6.8,33.997,2.949,47.678c-2.376,8.438-6.8,24.085-16.794,33.956c-4.015,13.906-10.6,26.938-19.415,38.42v15.155
	c0.001,0.478,0.319,0.896,0.778,1.024c38.216,8.807,126.977,36.863,126.977,107.396c-0.022,7.637-6.208,13.822-13.845,13.845H12.936
	C5.363,399.911-0.742,393.771-0.786,386.196z M259.965,302.884c-6.155-3.451-10.822-9.051-13.106-15.729
	c-6.245,4.121-12.954,7.489-19.989,10.035c-17.438,6.169-36.464,6.169-53.903,0c-7.069-2.51-13.808-5.865-20.07-9.994
	c-2.318,6.594-6.964,12.115-13.066,15.523c13.993,19.14,36.381,30.326,60.088,30.024
	C223.581,333.071,245.945,321.95,259.965,302.884z M127.5,207.938c1.224,0.082,2.228,1,2.417,2.212
	c3.604,23.225,21.176,53.248,51.364,63.692c12.028,4.277,25.163,4.277,37.191,0c28.959-10.444,47.842-39.895,51.487-63.651
	c0.188-1.212,1.192-2.13,2.416-2.212c1.434,0,6.554-2.211,12.861-24.576c4.915-17.367,2.826-23.674,1.188-25.886
	c-1.479-1.683-3.737-2.461-5.939-2.048c-0.895,0.087-1.772-0.282-2.335-0.983c-0.556-0.707-0.711-1.65-0.409-2.499v-0.532
	c1.229-4.096,6.39-25.313-11.551-38.584c-15.77,3.522-41.615,4.465-76.35-10.363c-16.958-7.25-31.211-7.496-42.271-0.737
	c-22.201,13.517-25.231,50.913-25.272,51.282c-0.109,1.433-1.352,2.511-2.785,2.417h-1.188c-1.878-0.146-3.706,0.652-4.875,2.13
	c-1.679,2.211-3.727,8.52,1.188,25.886C120.947,205.728,126.19,207.856,127.5,207.938z M162.89,216.131
	c3.984,20.45,23.792,33.798,44.243,29.813c15.082-2.939,26.875-14.731,29.813-29.813c0.611-3.338-1.6-6.539-4.938-7.149
	c-0.384-0.07-0.774-0.104-1.165-0.101h-61.85c-3.393,0.069-6.086,2.876-6.017,6.269c0.006,0.287,0.032,0.574,0.078,0.858
	L162.89,216.131z"/>
</svg>
