<svg xmlns="http://www.w3.org/2000/svg" xmlns:xlink="http://www.w3.org/1999/xlink" version="1.1" x="0px" y="0px" viewBox="0 0 100 125" style="enable-background:new 0 0 100 100;" xml:space="preserve"><path d="M41,57.6l-6.8,23.3c-1.7,0.4-3,1.9-3,3.7c0,2.1,1.7,3.7,3.7,3.7c2.1,0,3.7-1.7,3.7-3.7c0-1.6-1-3-2.5-3.5l6.7-22.7  c2.4,0.8,4.9,1.3,7.5,1.4v17.3c-1.6,0.4-2.7,1.9-2.7,3.6c0,2.1,1.7,3.7,3.7,3.7s3.7-1.7,3.7-3.7c0-1.7-1.2-3.1-2.7-3.6V59.6  c2.6-0.1,5-0.5,7.3-1.3L66.4,81c-1.4,0.5-2.5,1.9-2.5,3.5c0,2.1,1.7,3.7,3.7,3.7c2.1,0,3.7-1.7,3.7-3.7c0-1.8-1.3-3.3-3-3.7  l-6.8-23.2c9.9-4.1,17-13.8,17-25.2c0-0.6-0.4-1-1-1H25.2c-0.6,0-1,0.4-1,1C24.2,43.8,31.1,53.5,41,57.6z M67.7,82.8  c1,0,1.7,0.8,1.7,1.7s-0.8,1.7-1.7,1.7s-1.7-0.8-1.7-1.7S66.7,82.8,67.7,82.8z M36.6,84.5c0,1-0.8,1.7-1.7,1.7c-1,0-1.7-0.8-1.7-1.7  s0.8-1.7,1.7-1.7C35.8,82.8,36.6,83.5,36.6,84.5z M51.4,78.7c1,0,1.7,0.8,1.7,1.7s-0.8,1.7-1.7,1.7s-1.7-0.8-1.7-1.7  S50.4,78.7,51.4,78.7z M26.2,33.5h50.4C76,46.9,64.9,57.7,51.4,57.7S26.7,46.9,26.2,33.5z"/><path d="M54,18.6c2.3,0,4.2,1.9,4.2,4.2s-1.9,4.2-4.2,4.2c-0.6,0-1-0.4-1-1s0.4-1,1-1c1.2,0,2.2-1,2.2-2.2s-1-2.2-2.2-2.2  c-2.3,0-4.2-1.9-4.2-4.2s1.9-4.2,4.2-4.2c0.6,0,1,0.4,1,1s-0.4,1-1,1c-1.2,0-2.2,1-2.2,2.2S52.8,18.6,54,18.6z"/><path d="M45.5,18.6c2.3,0,4.2,1.9,4.2,4.2s-1.9,4.2-4.2,4.2c-0.6,0-1-0.4-1-1s0.4-1,1-1c1.2,0,2.2-1,2.2-2.2s-1-2.2-2.2-2.2  c-2.3,0-4.2-1.9-4.2-4.2s1.9-4.2,4.2-4.2c0.6,0,1,0.4,1,1s-0.4,1-1,1c-1.2,0-2.2,1-2.2,2.2S44.3,18.6,45.5,18.6z"/><text x="0" y="115" fill="#000000" font-size="5px" font-weight="bold" font-family="'Helvetica Neue', Helvetica, Arial-Unicode, Arial, Sans-serif">Created by Made by Made</text><text x="0" y="120" fill="#000000" font-size="5px" font-weight="bold" font-family="'Helvetica Neue', Helvetica, Arial-Unicode, Arial, Sans-serif">from the Noun Project</text></svg>