<svg xmlns="http://www.w3.org/2000/svg" xmlns:xlink="http://www.w3.org/1999/xlink" version="1.1" x="0px" y="0px" viewBox="0 0 100 125" style="enable-background:new 0 0 100 100;" xml:space="preserve"><g><path d="M40.6,20c0-0.8-0.7-1.5-1.5-1.5h-4.3c-0.8,0-1.5,0.7-1.5,1.5s0.7,1.5,1.5,1.5h4.3C39.9,21.5,40.6,20.8,40.6,20z"/><path d="M47.6,21.5h4.3c0.8,0,1.5-0.7,1.5-1.5s-0.7-1.5-1.5-1.5h-4.3c-0.8,0-1.5,0.7-1.5,1.5S46.8,21.5,47.6,21.5z"/><path d="M64.7,18.5h-4.3c-0.8,0-1.5,0.7-1.5,1.5s0.7,1.5,1.5,1.5h4.3c0.8,0,1.5-0.7,1.5-1.5S65.6,18.5,64.7,18.5z"/><path d="M49.6,57C49.6,57,49.6,57,49.6,57C49.7,57,49.7,57,49.6,57C49.7,57,49.7,57,49.6,57C49.7,57,49.7,57,49.6,57   c0.3,0,0.6,0,0.9,0c4.5-0.4,8.1-4.5,8-9.1v0c-0.1-2.9-1.6-4.9-3.1-6.8c-1.4-1.8-2.9-3.7-3.4-6.7c-0.1-1-0.8-1.7-1.8-1.9   c-0.9-0.2-1.9,0.1-2.4,0.9L47.3,34c-3.9,5.4-6.5,8.9-6.5,14.1c0,2.5,1.1,4.9,2.9,6.6C45.3,56.2,47.4,57,49.6,57z M50.7,53L50.7,53   c0,0.8-0.6,0.9-0.9,1c-0.1,0-0.1,0-0.2,0c-0.3,0-1-0.1-1-1c0-0.3,0-0.6,0.1-0.9c0-0.1,0-0.2,0-0.2c0-0.2,0.1-0.5,0.1-0.7   c0-0.1,0-0.1,0-0.2c0.1-0.3,0.2-0.5,0.3-0.8c0-0.1,0.1-0.1,0.1-0.2c0.1-0.2,0.2-0.4,0.3-0.6c0,0,0-0.1,0.1-0.1c0,0,0,0.1,0.1,0.1   c0.1,0.2,0.2,0.4,0.3,0.6c0,0.1,0.1,0.1,0.1,0.2c0.1,0.3,0.2,0.5,0.3,0.8c0,0.1,0,0.1,0,0.2c0.1,0.2,0.1,0.5,0.1,0.7   c0,0.1,0,0.2,0,0.2C50.7,52.4,50.7,52.7,50.7,53C50.7,53,50.7,53,50.7,53z M49.4,36.2c0.8,2.9,2.3,4.9,3.7,6.7   c1.4,1.7,2.4,3.1,2.5,5.1c0.1,1.7-0.7,3.3-1.8,4.4c-0.1-2.5-1.2-4.8-3-6.6c0,0,0,0,0,0c0,0,0,0,0,0c0,0,0,0,0,0l-1.1-1l-1.1,1   c0,0,0,0,0,0c0,0,0,0,0,0c0,0,0,0,0,0c-1.8,1.8-2.8,4.1-3,6.6c-1.2-1.1-1.8-2.6-1.8-4.3C43.8,44,45.9,41,49.4,36.2z"/><path d="M62.5,56.9c-0.4-0.7-1.3-1.1-2-0.7l-10.9,5.2l-10.9-5.2c-0.7-0.4-1.6,0-2,0.7c-0.4,0.7,0,1.6,0.7,2l8.7,4.2l-8.5,4.1   c-0.7,0.4-1.1,1.3-0.7,2c0.3,0.5,0.8,0.9,1.4,0.9c0.2,0,0.4,0,0.6-0.1l10.6-5.1l10.6,5.1c0.2,0.1,0.4,0.1,0.6,0.1   c0.6,0,1.1-0.3,1.4-0.9c0.4-0.7,0-1.6-0.7-2l-8.5-4.1l8.7-4.2C62.5,58.5,62.8,57.6,62.5,56.9z"/><path d="M77.3,21l-2.5-1.1L77,19c0.8-0.3,1.1-1.2,0.8-2c-0.3-0.8-1.2-1.1-2-0.8l-3.1,1.3c0,0-0.1,0-0.1,0.1L70.8,9H28.4l-6,32.1   l0,39.4c0,0,0,0,0,0.1c0,0,0,0,0,0.1l0,9.6h54.9V41.4l-3.7-18.8l2.6,1.2c0.2,0.1,0.4,0.1,0.6,0.1c0.6,0,1.1-0.3,1.4-0.9   C78.4,22.3,78.1,21.4,77.3,21z M25.3,82h2.3v5.2h-2.3V82z M32.7,82v5.2h-2.2V82H32.7z M37.9,82v5.2h-2.2V82H37.9z M43.1,82v5.2   h-2.2V82H43.1z M48.2,82v5.2h-2.2V82H48.2z M53.4,82v5.2h-2.2V82H53.4z M58.5,82v5.2h-2.2V82H58.5z M63.7,82v5.2h-2.2V82H63.7z    M68.9,82v5.2h-2.2V82H68.9z M71.9,87.2V82h2.4v5.2H71.9z M74.2,79H25.3V41.5L30.9,12h37.5l5.8,29.5V79z"/></g><text x="0" y="115" fill="#000000" font-size="5px" font-weight="bold" font-family="'Helvetica Neue', Helvetica, Arial-Unicode, Arial, Sans-serif">Created by Tomasz Pasternak</text><text x="0" y="120" fill="#000000" font-size="5px" font-weight="bold" font-family="'Helvetica Neue', Helvetica, Arial-Unicode, Arial, Sans-serif">from the Noun Project</text></svg>