<svg xmlns="http://www.w3.org/2000/svg" xmlns:xlink="http://www.w3.org/1999/xlink" version="1.1" x="0px" y="0px" viewBox="0 0 48 60" enable-background="new 0 0 48 48" xml:space="preserve"><g><path d="M47,37.5l-1.9,0c0,0-0.1,0-0.1,0H24l-2.3,0l5.9-5.9c1.5-1.5,2.3-3.5,2.3-5.6c0-1.1-0.2-2.2-0.7-3.2L46.7,6.7   C47.5,6,48,5,48,3.9c0-1.1-0.4-2.1-1.1-2.8C46.1,0.4,45.1,0,44.1,0c-1.1,0-2,0.5-2.8,1.3L25.2,18.7c-1-0.4-2.1-0.7-3.2-0.7   c-2.1,0-4.1,0.8-5.6,2.3L8,28.8c-0.4,0.4-0.4,1,0,1.4c0.2,0.2,0.5,0.3,0.7,0.3c0.3,0,0.5-0.1,0.7-0.3l7.7-7.7l1.9,1.9L11.3,32   c-0.4,0.4-0.4,1,0,1.4c0.2,0.2,0.5,0.3,0.7,0.3c0.3,0,0.5-0.1,0.7-0.3l7.7-7.7l1.9,1.9l-7.7,7.7c-0.4,0.4-0.4,1,0,1.4   c0.2,0.2,0.5,0.3,0.7,0.3c0.3,0,0.5-0.1,0.7-0.3l7.7-7.7l1.9,1.9l-6.6,6.6L1,37.5c0,0,0,0,0,0c-0.6,0-1,0.4-1,1c0,0.6,0.4,1,1,1   l1.4,0c2.6,5.2,8,8.5,13.9,8.5h15.5c5.6,0,10.7-3,13.5-7.8l0.4-0.7l1.4,0c0,0,0,0,0,0c0.6,0,1-0.4,1-1C48,38,47.6,37.5,47,37.5z    M42.8,2.6C43.1,2.2,43.6,2,44.1,2c0.5,0,1,0.2,1.4,0.5C45.8,2.9,46,3.4,46,3.9c0,0.5-0.2,1-0.6,1.3L28.2,21.1   c-0.2-0.2-0.4-0.5-0.6-0.7s-0.4-0.4-0.7-0.6L42.8,2.6z M22,20.1c1.6,0,3.1,0.6,4.2,1.7c1.1,1.1,1.7,2.6,1.7,4.2   c0,1.2-0.4,2.4-1.1,3.4l-5.8-5.8h0h0l-2.5-2.5C19.6,20.4,20.8,20.1,22,20.1z M31.7,46H16.2c-4.7,0-9.1-2.5-11.6-6.5l38.6,0   C40.8,43.5,36.4,46,31.7,46z"/></g><text x="0" y="63" fill="#000000" font-size="5px" font-weight="bold" font-family="'Helvetica Neue', Helvetica, Arial-Unicode, Arial, Sans-serif">Created by Vectors Market</text><text x="0" y="68" fill="#000000" font-size="5px" font-weight="bold" font-family="'Helvetica Neue', Helvetica, Arial-Unicode, Arial, Sans-serif">from the Noun Project</text></svg>