<svg xmlns="http://www.w3.org/2000/svg" xmlns:xlink="http://www.w3.org/1999/xlink" version="1.1" x="0px" y="0px" viewBox="0 0 100 125" style="enable-background:new 0 0 100 100;" xml:space="preserve"><g><path d="M73.8,60.2V43h-1.5c-2.6,0-5-1-6.8-2.8s-2.8-4.3-2.8-6.8V33v-1.5V20.8C62.6,13.9,57,8.3,50,8.3s-12.6,5.6-12.6,12.6v10.5   v1.5v0.4c0,2.6-1,5-2.8,6.8C32.8,42,30.4,43,27.8,43h-1.5v17c-4.6-0.7-8.1-4.7-8.1-9.4c0-0.8-0.7-1.5-1.5-1.5s-1.5,0.7-1.5,1.5   c0,6.4,4.8,11.7,11.1,12.5v22.2c0,3.6,2.9,6.5,6.5,6.5h34.5c3.6,0,6.5-2.9,6.5-6.5v-22c4.5,0.8,8,4.7,8,9.4c0,0.8,0.7,1.5,1.5,1.5   s1.5-0.7,1.5-1.5C84.8,66.2,80,61,73.8,60.2z M40.5,20.8c0-5.3,4.3-9.6,9.6-9.6s9.6,4.3,9.6,9.6v10.5H40.5V20.8z M67.3,88.7H32.8   c-1.9,0-3.5-1.6-3.5-3.5V45.9c2.8-0.3,5.4-1.6,7.5-3.6c2.1-2.1,3.4-4.9,3.7-7.9h19.2c0.2,3,1.5,5.7,3.7,7.9c2,2,4.6,3.3,7.5,3.6   v39.2C70.8,87.2,69.2,88.7,67.3,88.7z"/><path d="M54.3,57.7c1.2-0.1,2.4-0.5,3.4-1.2c1.4-1,2.4-2.5,2.6-4.3l1.2-7.1c0.1-0.8-0.4-1.6-1.2-1.7c-0.8-0.1-1.6,0.4-1.7,1.2   l-1.2,7.1c-0.2,1.4-1.3,2.5-2.5,2.8l1.5-9.5c0.1-0.8-0.4-1.6-1.2-1.7c-0.8-0.1-1.6,0.4-1.7,1.2L52,54c-0.3-0.2-0.6-0.5-0.9-0.9   c-0.6-0.8-0.8-1.7-0.6-2.6l1.2-7.1c0.1-0.8-0.4-1.6-1.2-1.7c-0.8-0.1-1.6,0.4-1.7,1.2L47.6,50c-0.3,1.7,0.1,3.5,1.2,4.9   c0.7,1,1.7,1.8,2.8,2.2L51.1,60H37.5v10.2c0,6.9,5.6,12.6,12.6,12.6s12.6-5.6,12.6-12.6V60.1H54L54.3,57.7z M59.6,70.3   c0,5.3-4.3,9.6-9.6,9.6s-9.6-4.3-9.6-9.6v-7.2h19.1L59.6,70.3L59.6,70.3z"/></g><text x="0" y="115" fill="#000000" font-size="5px" font-weight="bold" font-family="'Helvetica Neue', Helvetica, Arial-Unicode, Arial, Sans-serif">Created by Tomasz Pasternak</text><text x="0" y="120" fill="#000000" font-size="5px" font-weight="bold" font-family="'Helvetica Neue', Helvetica, Arial-Unicode, Arial, Sans-serif">from the Noun Project</text></svg>