<svg xmlns="http://www.w3.org/2000/svg" xmlns:xlink="http://www.w3.org/1999/xlink" version="1.1" x="0px" y="0px" viewBox="0 0 5 6.25" enable-background="new 0 0 5 5" xml:space="preserve"><g><path fill="#000000" d="M1.368,3.711c0-0.117-0.041-0.225-0.115-0.306C1.176,3.323,1.07,3.277,0.955,3.277   c-0.247,0-0.434,0.175-0.434,0.407c0,0.114,0.046,0.229,0.125,0.316C0.73,4.093,0.84,4.144,0.955,4.144s0.221-0.046,0.298-0.129   C1.327,3.936,1.368,3.827,1.368,3.711z M0.955,4.031c-0.171,0-0.321-0.162-0.321-0.347c0-0.171,0.135-0.295,0.321-0.295   c0.171,0,0.301,0.138,0.301,0.321C1.256,3.893,1.126,4.031,0.955,4.031z"/><path fill="#000000" d="M0.93,3.461c-0.128,0-0.218,0.109-0.218,0.266c0,0.083,0.026,0.221,0.207,0.221   c0.146,0,0.26-0.104,0.26-0.236C1.179,3.573,1.067,3.461,0.93,3.461z M0.919,3.835c-0.062,0-0.094-0.018-0.094-0.108   c0-0.121,0.065-0.153,0.104-0.153c0.075,0,0.137,0.062,0.137,0.138C1.066,3.771,1.011,3.835,0.919,3.835z"/><path fill="#000000" d="M4.56,3.606C4.544,3.447,4.47,3.302,4.349,3.198c-0.008-0.006-0.016-0.013-0.023-0.02l-0.487-0.45   c0-0.001-0.001-0.001-0.001-0.001L3.621,2.528C3.669,2.427,3.639,2.37,3.617,2.345C3.614,2.343,3.611,2.339,3.608,2.336   C3.606,2.331,3.604,2.326,3.6,2.321L3.537,2.233l0.688-0.617l0.003-0.005C4.313,1.5,4.359,1.36,4.359,1.219   c0-0.355-0.271-0.634-0.62-0.634c-0.07,0-0.141,0.012-0.207,0.035L3.521,0.624L2.515,1.505L1.559,0.621L1.555,0.617L1.55,0.614   C1.431,0.54,1.287,0.506,1.146,0.519C0.978,0.535,0.825,0.612,0.718,0.737c-0.07,0.081-0.117,0.177-0.137,0.279   c0,0.001,0,0.002,0,0.003C0.569,1.076,0.567,1.136,0.572,1.194c0.006,0.07,0.024,0.14,0.054,0.203l0.005,0.011l0.957,0.908   l-0.99,0.866c-0.032,0.024-0.062,0.05-0.089,0.079L0.507,3.263l0,0C0.4,3.376,0.335,3.528,0.335,3.696   c0,0.35,0.284,0.634,0.634,0.634c0.172,0,0.33-0.068,0.446-0.192c0.001-0.001,0.002-0.001,0.002-0.002l0.486-0.438   c0.004-0.003,0.008-0.006,0.012-0.01c0.001-0.001,0.002-0.002,0.002-0.003L2.49,3.171l0.433,0.41l0,0l0,0l0.525,0.498   c0.017,0.02,0.034,0.038,0.054,0.056C3.619,4.241,3.77,4.299,3.927,4.299c0.02,0,0.04-0.001,0.06-0.003   C4.155,4.28,4.308,4.2,4.415,4.07C4.523,3.94,4.575,3.775,4.56,3.606z M3.505,2.421c0.004,0,0.008,0,0.011,0   c0.009,0,0.013,0.001,0.015,0.001c0.001,0.003,0.001,0.01-0.001,0.021L3.505,2.421z M4.23,1.117   C4.191,1.162,4.075,1.275,3.897,1.279C3.66,1.285,3.557,1.483,3.518,1.559C3.515,1.564,3.512,1.57,3.509,1.575   C3.494,1.59,3.487,1.614,3.495,1.636c0.008,0.025,0.031,0.041,0.057,0.041c0.006,0,0.013-0.001,0.019-0.003   c0.027-0.009,0.037-0.029,0.054-0.06C3.66,1.546,3.734,1.403,3.9,1.399c0.148-0.004,0.262-0.065,0.336-0.124   C4.228,1.369,4.192,1.459,4.136,1.534L3.468,2.135L3.379,2.012c-0.02-0.027-0.057-0.033-0.083-0.014   c-0.027,0.02-0.033,0.057-0.014,0.083l0.166,0.233C3.434,2.318,3.42,2.323,3.405,2.329L3.137,2.08   C3.199,1.938,3.3,1.839,3.303,1.837c0.023-0.022,0.024-0.061,0.001-0.085C3.281,1.729,3.243,1.728,3.22,1.751   c-0.006,0.005-0.104,0.1-0.176,0.243L2.847,1.812C2.95,1.698,2.983,1.604,3.011,1.522c0.021-0.06,0.036-0.105,0.077-0.147   c0.058-0.057,0.087-0.055,0.146-0.05c0.061,0.003,0.144,0.009,0.264-0.053c0.193-0.1,0.369-0.41,0.432-0.531   C4.084,0.805,4.198,0.944,4.23,1.117z M3.582,0.729c0.051-0.017,0.104-0.025,0.157-0.025c0.024,0,0.048,0.002,0.071,0.006   C3.787,0.752,3.756,0.809,3.717,0.869c-0.1,0.152-0.194,0.255-0.274,0.297C3.352,1.213,3.296,1.209,3.241,1.205   C3.175,1.201,3.1,1.195,3.004,1.291C2.942,1.352,2.919,1.418,2.897,1.483C2.872,1.557,2.845,1.635,2.759,1.73l-0.064-0.06   C2.688,1.659,2.678,1.649,2.665,1.644L2.604,1.587L3.582,0.729z M0.454,3.696c0-0.134,0.053-0.256,0.137-0.348l0.082-0.072   c0.084-0.059,0.186-0.094,0.296-0.094c0.232,0,0.424,0.156,0.482,0.374l0,0l0,0c0.012,0.044,0.018,0.092,0.018,0.14   c0,0.131-0.05,0.26-0.137,0.354L1.26,4.116C1.177,4.177,1.076,4.211,0.969,4.211C0.686,4.211,0.454,3.979,0.454,3.696z    M1.564,3.518C1.497,3.249,1.532,3.207,1.576,3.155c0.009-0.009,0.018-0.019,0.025-0.03c0.04-0.051,0.201-0.136,0.294-0.178   c0.03-0.014,0.043-0.049,0.029-0.079c-0.013-0.03-0.049-0.043-0.079-0.03C1.843,2.839,1.779,2.867,1.707,2.907   c-0.103,0.056-0.168,0.104-0.2,0.145C1.5,3.061,1.493,3.069,1.486,3.077c-0.04,0.046-0.07,0.09-0.077,0.169   c-0.112-0.113-0.267-0.184-0.44-0.184c-0.019,0-0.036,0.001-0.055,0.003l0.311-0.271l0,0c0.028-0.024,0.149-0.061,0.33-0.062   c0.034,0,0.061-0.027,0.06-0.06c-0.001-0.034-0.027-0.061-0.06-0.061H1.554c-0.02,0-0.07,0.002-0.13,0.008l0.251-0.22L1.82,2.537   c0,0-0.001,0-0.002,0C1.77,2.563,1.752,2.572,1.739,2.585c-0.023,0.023-0.023,0.062,0,0.085c0.012,0.012,0.027,0.018,0.043,0.018   c0.015,0,0.028-0.006,0.04-0.015c0.007-0.006,0.032-0.02,0.052-0.029c0.013-0.006,0.025-0.013,0.038-0.02L2.183,2.88   C2.174,2.906,2.164,2.935,2.154,2.964C2.089,3.152,2.001,3.41,1.832,3.602L1.574,3.833c0.01-0.045,0.015-0.09,0.015-0.137   C1.589,3.635,1.58,3.574,1.564,3.518z M2.147,3.317c0.051-0.111,0.088-0.222,0.12-0.315C2.271,2.991,2.274,2.98,2.278,2.97   l0.124,0.119L2.147,3.317z M3.005,3.494C2.978,3.468,2.931,3.351,2.912,3.17C2.909,3.138,2.879,3.113,2.847,3.117   C2.813,3.12,2.79,3.15,2.793,3.183c0.002,0.02,0.008,0.07,0.02,0.129L1.932,2.477l-0.09-0.309c-0.011-0.032-0.043-0.05-0.075-0.041   c-0.031,0.01-0.05,0.043-0.04,0.074l0.032,0.111L0.73,1.338C0.71,1.289,0.696,1.237,0.691,1.184   C0.689,1.159,0.689,1.136,0.689,1.112c0.044,0.019,0.104,0.046,0.167,0.079C1.018,1.275,1.129,1.36,1.179,1.438   c0.055,0.085,0.057,0.142,0.058,0.195C1.237,1.7,1.239,1.775,1.343,1.862C1.41,1.917,1.479,1.935,1.545,1.95   c0.114,0.027,0.243,0.059,0.442,0.295c0.26,0.308,0.42,0.407,0.515,0.467C2.527,2.728,2.547,2.74,2.561,2.751   c0.043,0.036,0.098,0.12,0.134,0.175C2.725,2.973,2.735,2.989,2.75,3c0.011,0.01,0.024,0.015,0.037,0.015   c0.018,0,0.035-0.008,0.047-0.021c0.021-0.024,0.018-0.061-0.005-0.082C2.822,2.903,2.808,2.88,2.795,2.86   C2.753,2.796,2.694,2.707,2.638,2.659C2.617,2.643,2.594,2.628,2.566,2.61c-0.09-0.056-0.239-0.149-0.488-0.442   c-0.224-0.266-0.38-0.305-0.505-0.334C1.513,1.819,1.465,1.808,1.419,1.771C1.357,1.719,1.357,1.688,1.355,1.63   C1.354,1.569,1.352,1.487,1.279,1.372C1.163,1.19,0.837,1.043,0.711,0.991c0.02-0.063,0.053-0.124,0.097-0.176   c0.065-0.076,0.151-0.131,0.249-0.159c0.049,0.036,0.172,0.143,0.192,0.316c0.028,0.236,0.235,0.321,0.313,0.354   C1.568,1.328,1.575,1.331,1.58,1.333c0.011,0.009,0.024,0.014,0.038,0.014c0.008,0,0.016-0.002,0.023-0.005   c0.03-0.014,0.044-0.049,0.031-0.079C1.661,1.236,1.64,1.228,1.608,1.215c-0.071-0.029-0.221-0.09-0.24-0.256   C1.352,0.812,1.279,0.705,1.214,0.636c0.095,0.002,0.188,0.028,0.268,0.077l1.443,1.335L2.757,2.035   C2.724,2.033,2.695,2.059,2.693,2.091C2.69,2.124,2.715,2.152,2.748,2.154l0.318,0.024l0.378,0.35   C3.327,2.487,3.213,2.46,3.116,2.437c-0.069-0.016-0.13-0.031-0.172-0.046C2.753,2.323,2.517,2.201,2.451,2.096   C2.429,2.06,2.423,2.01,2.417,1.956C2.405,1.854,2.39,1.713,2.21,1.682C2.017,1.647,1.861,1.516,1.86,1.514   C1.835,1.492,1.797,1.496,1.775,1.521C1.754,1.546,1.757,1.583,1.781,1.605C1.789,1.611,1.962,1.76,2.189,1.8   c0.087,0.015,0.097,0.062,0.108,0.17C2.305,2.031,2.312,2.101,2.35,2.159c0.111,0.18,0.481,0.318,0.556,0.345   c0.048,0.017,0.11,0.031,0.184,0.049c0.195,0.048,0.463,0.112,0.67,0.266L4.01,3.051C3.983,3.048,3.957,3.046,3.931,3.046   c-0.02,0-0.04,0-0.061,0.002c-0.062,0.006-0.12,0.02-0.175,0.041C3.434,3.181,3.389,3.15,3.333,3.109   C3.322,3.103,3.312,3.096,3.3,3.088C3.245,3.053,3.146,2.9,3.096,2.812C3.08,2.784,3.043,2.773,3.015,2.79   C2.985,2.806,2.976,2.843,2.992,2.871c0.001,0.003,0.035,0.063,0.081,0.132c0.065,0.098,0.118,0.158,0.162,0.187   c0.01,0.005,0.019,0.012,0.028,0.019c0.049,0.034,0.096,0.061,0.175,0.061C3.335,3.391,3.28,3.551,3.296,3.724   C3.298,3.742,3.301,3.76,3.304,3.777L3.005,3.494z M4.323,3.993C4.236,4.1,4.112,4.165,3.976,4.177   C3.959,4.179,3.942,4.179,3.927,4.179c-0.111,0-0.22-0.036-0.309-0.104L3.534,3.996c-0.066-0.08-0.109-0.178-0.118-0.284   C3.395,3.48,3.532,3.276,3.743,3.198c0,0,0,0,0.001,0h0.001c0.042-0.016,0.088-0.026,0.137-0.03   c0.017-0.002,0.032-0.003,0.049-0.003c0.116,0,0.228,0.038,0.317,0.106l0.073,0.066c0.067,0.077,0.108,0.173,0.118,0.28   C4.452,3.755,4.411,3.888,4.323,3.993z"/><path fill="#000000" d="M3.95,3.265c-0.016,0-0.03,0.001-0.046,0.002c-0.115,0.011-0.22,0.062-0.292,0.143   C3.536,3.493,3.501,3.603,3.512,3.718c0.021,0.229,0.191,0.396,0.404,0.396c0.014,0,0.026-0.001,0.04-0.002   C4.07,4.101,4.182,4.045,4.261,3.958c0.084-0.092,0.124-0.205,0.113-0.32C4.354,3.422,4.176,3.265,3.95,3.265z M3.946,3.999   C3.936,4,3.927,4,3.916,4C3.76,4,3.64,3.88,3.623,3.707C3.607,3.536,3.732,3.396,3.915,3.378C3.927,3.377,3.938,3.377,3.95,3.377   c0.169,0,0.298,0.111,0.312,0.271C4.278,3.818,4.13,3.982,3.946,3.999z"/><path fill="#000000" d="M3.943,3.454c-0.007,0-0.014,0-0.021,0C3.785,3.467,3.684,3.589,3.696,3.727   c0.011,0.115,0.112,0.192,0.251,0.192c0.012,0,0.022,0,0.034-0.001c0.069-0.007,0.12-0.027,0.154-0.063   c0.037-0.039,0.053-0.094,0.047-0.163C4.17,3.557,4.066,3.454,3.943,3.454z M4.054,3.776C4.04,3.792,4.012,3.803,3.971,3.806   C3.963,3.807,3.955,3.807,3.947,3.807c-0.021,0-0.131-0.004-0.139-0.091C3.802,3.641,3.857,3.573,3.933,3.566   c0.003,0,0.007,0,0.011,0c0.065,0,0.119,0.059,0.127,0.136C4.075,3.755,4.06,3.771,4.054,3.776z"/></g><text x="0" y="20" fill="#000000" font-size="5px" font-weight="bold" font-family="'Helvetica Neue', Helvetica, Arial-Unicode, Arial, Sans-serif">Created by Alice Noir</text><text x="0" y="25" fill="#000000" font-size="5px" font-weight="bold" font-family="'Helvetica Neue', Helvetica, Arial-Unicode, Arial, Sans-serif">from the Noun Project</text></svg>