<svg xmlns="http://www.w3.org/2000/svg" data-name="Layer 1" viewBox="0 0 100 125" x="0px" y="0px"><title>Artboard 16</title><path d="M37.19,14.05A10.05,10.05,0,1,0,27.14,24.11,10.06,10.06,0,0,0,37.19,14.05Z"/><path d="M58,14.05A10.05,10.05,0,1,0,68,4,10.07,10.07,0,0,0,58,14.05Z"/><path d="M49.19,72.15l.1.06a39.69,39.69,0,0,0,11,4.75L62.19,92.1A4.39,4.39,0,0,0,66.55,96h3a4.38,4.38,0,0,0,4.36-3.88L75.74,77a39.66,39.66,0,0,0,11.14-4.81A4.44,4.44,0,0,0,88.76,67L78.62,36.28a10.3,10.3,0,0,0-9.78-7.07H67.2a10.3,10.3,0,0,0-9.78,7.07L47.29,67A4.44,4.44,0,0,0,49.19,72.15Z"/><path d="M11,42.39l.25,14.88a5.17,5.17,0,0,0,2.63,4.42l3,1.69,3.61,29.19A3.87,3.87,0,0,0,24.35,96h5.58a3.87,3.87,0,0,0,3.85-3.43l3.61-29.19,3-1.69A5.17,5.17,0,0,0,43,57.27l.25-14.88a13,13,0,0,0-13-13.21H24A13,13,0,0,0,11,42.39Z"/><text x="0" y="115" fill="#000000" font-size="5px" font-weight="bold" font-family="'Helvetica Neue', Helvetica, Arial-Unicode, Arial, Sans-serif">Created by Gregor Cresnar</text><text x="0" y="120" fill="#000000" font-size="5px" font-weight="bold" font-family="'Helvetica Neue', Helvetica, Arial-Unicode, Arial, Sans-serif">from the Noun Project</text></svg>