<svg xmlns="http://www.w3.org/2000/svg" xmlns:xlink="http://www.w3.org/1999/xlink" version="1.1" x="0px" y="0px" viewBox="0 0 100 125" style="enable-background:new 0 0 100 100;" xml:space="preserve"><path d="M79.4,31.2c-0.3-0.4-0.8-0.6-1.3-0.6H46.5L45,19.4c-0.5-2.8-2.6-5.1-5.4-5.7L22.3,10  c-0.9-0.2-1.9,0.4-2.1,1.3c-0.2,0.9,0.4,1.9,1.3,2.1L38.9,17c1.4,0.3,2.5,1.4,2.7,2.8L43,30.6h-8.7c-0.5,0-1,0.2-1.3,0.6  c-0.3,0.4-0.5,0.8-0.4,1.3l4.9,52.2c0.3,3,2.8,5.3,5.8,5.3h25.8c3,0,5.5-2.3,5.8-5.3l4.9-52.2C79.9,32.1,79.7,31.6,79.4,31.2z   M76.2,34.1L74.9,47h-2.5l0.8-8.6c0.1-1-0.6-1.8-1.6-1.9c-1-0.1-1.8,0.6-1.9,1.6L69,47h-2.7l0.3-0.8c0.9-2.5-0.4-5.2-2.9-6.1  l-7.4-2.7c-1.2-0.4-2.5-0.4-3.7,0.2c-1.2,0.5-2,1.5-2.5,2.7l-0.5,1.5H48l-1-7.7H76.2z M44.4,55.8c-0.7,0-1.3-0.6-1.3-1.3v-4h10.5v4  c0,0.7-0.6,1.3-1.3,1.3H44.4z M52.3,45.3c0.7,0,1.3,0.6,1.3,1.3V47H43.1v-0.5c0-0.7,0.6-1.3,1.3-1.3H52.3z M57.1,50.5h4.3l-0.7,2  c-0.1,0.3-0.4,0.6-0.7,0.7c-0.3,0.1-0.7,0.2-1,0l-1.9-0.7V50.5z M57.1,47v-0.5c0-2.3-1.7-4.2-3.8-4.7l0.1-0.4  c0.1-0.3,0.4-0.6,0.7-0.7c0.3-0.2,0.7-0.2,1,0l7.4,2.7c0.7,0.2,1,1,0.8,1.7l-0.7,2H57.1z M43.5,34.1l1,7.7h-0.1  c-2.6,0-4.8,2.1-4.8,4.8V47h-2.2l-1.2-12.9H43.5z M71.4,84.4c-0.1,1.2-1.1,2.1-2.3,2.1H43.3c-1.2,0-2.2-0.9-2.3-2.1l-3.2-33.9h1.9v4  c0,2.6,2.1,4.8,4.8,4.8h2.4l3.1,23.1c0.1,0.9,0.9,1.5,1.7,1.5c0.1,0,0.2,0,0.2,0c0.9-0.1,1.6-1,1.5-1.9l-3-22.7h2  c2,0,3.8-1.3,4.5-3.1l1,0.4c0.5,0.2,1.1,0.3,1.6,0.3c0.7,0,1.4-0.2,2-0.5c1.2-0.5,2-1.5,2.5-2.7l1.1-3.2h3.6l-2,21.6  c-0.1,1,0.6,1.8,1.6,1.9c0.1,0,0.1,0,0.2,0c0.9,0,1.6-0.7,1.7-1.6l2.1-21.9h2.5L71.4,84.4z"/><text x="0" y="115" fill="#000000" font-size="5px" font-weight="bold" font-family="'Helvetica Neue', Helvetica, Arial-Unicode, Arial, Sans-serif">Created by Esteban Sandoval</text><text x="0" y="120" fill="#000000" font-size="5px" font-weight="bold" font-family="'Helvetica Neue', Helvetica, Arial-Unicode, Arial, Sans-serif">from the Noun Project</text></svg>