<svg xmlns="http://www.w3.org/2000/svg" xmlns:xlink="http://www.w3.org/1999/xlink" version="1.1" x="0px" y="0px" viewBox="0 0 100 125" enable-background="new 0 0 100 100" xml:space="preserve"><g><path d="M46.9,27.9c0.7-1.4,1.4-2.7,2.3-3.9L15.9,40.6c-1.2,0.6-1.6,2-1.1,3.2c0.4,0.8,1.2,1.3,2.1,1.3c0.4,0,0.7-0.1,1.1-0.3   L45.6,31C46,29.9,46.4,28.9,46.9,27.9z"/></g><path d="M95.4,31.7c-4.6-12.8-18.6-19.5-31.5-15c-7.8,2.8-13.3,9.1-15.4,16.4l-18,9c-1.2,0.6-1.6,2-1.1,3.2c0.4,0.8,1.2,1.3,2.1,1.3  c0.4,0,0.7-0.1,1.1-0.3l15-7.5c-0.1,3.1,0.3,6.2,1.4,9.3c0.4,1,0.8,1.9,1.2,2.9L10.4,70.9c-1.2,0.6-1.6,2-1.1,3.2  c0.4,0.8,1.2,1.3,2.1,1.3c0.4,0,0.7-0.1,1.1-0.3L52.7,55c1,1.3,2.1,2.5,3.4,3.5l-15,7.5c-1.2,0.6-1.6,2-1.1,3.2  c0.4,0.8,1.2,1.3,2.1,1.3c0.4,0,0.7-0.1,1.1-0.3l17.3-8.7c5.9,3.2,13.1,3.9,19.9,1.5C93.2,58.6,99.9,44.5,95.4,31.7z M65.4,20.8  c0.1,0,0.2-0.1,0.4-0.1c0.7,2.2,1.3,3.9,1.9,5c1.5,2.6,4.8,5.1,7.9,7.5c2.5,1.9,5.2,3.9,6.1,5.5c0.7,1.2,1.4,3.5,1.1,5.8  c-0.4,2.7-2,5-4.8,6.6c-2.7,1.6-5.3,1.3-7,0.8c-2.7-0.7-4.8-2.5-5.6-3.8c-0.9-1.7-1.4-5-1.8-8.2c-0.5-3.8-1-7.8-2.5-10.4  c-0.6-1-1.6-2.3-3.1-3.9C60,23.5,62.5,21.8,65.4,20.8z M79,59c-10.3,3.7-21.7-1.9-25.4-12.5c-2.2-6.2-1.3-12.7,2-17.8  c1.2,1.4,1.9,2.2,2.2,2.7c1.1,1.9,1.6,5.5,2,9c0.5,3.7,0.9,7.2,2.2,9.6c1.4,2.5,7.8,8.6,18,4.5c10.4-6.1,5.7-16.9,5.1-17.8  c-1.3-2.2-4.1-4.4-7.1-6.6c-2.8-2.2-5.8-4.4-6.9-6.3c-0.3-0.6-0.8-1.7-1.5-3.9c9-1.1,18,4.3,21.2,13.5C94.6,43.8,89.3,55.4,79,59z"/><g><path d="M44.5,44.2L7.9,62.4c-1.2,0.6-1.6,2-1.1,3.2c0.4,0.8,1.2,1.3,2.1,1.3c0.4,0,0.7-0.1,1.1-0.3l35.6-17.8   C45.1,47.3,44.7,45.7,44.5,44.2z"/></g><g><path d="M62.3,66.1L33.5,80.5c-1.2,0.6-1.6,2-1.1,3.2c0.4,0.8,1.2,1.3,2.1,1.3c0.4,0,0.7-0.1,1.1-0.3l33.9-17   C67,67.6,64.6,67,62.3,66.1z"/></g><text x="0" y="115" fill="#000000" font-size="5px" font-weight="bold" font-family="'Helvetica Neue', Helvetica, Arial-Unicode, Arial, Sans-serif">Created by Richard Cordero</text><text x="0" y="120" fill="#000000" font-size="5px" font-weight="bold" font-family="'Helvetica Neue', Helvetica, Arial-Unicode, Arial, Sans-serif">from the Noun Project</text></svg>