<svg xmlns="http://www.w3.org/2000/svg" xmlns:xlink="http://www.w3.org/1999/xlink" version="1.1" x="0px" y="0px" viewBox="0 0 100 125" enable-background="new 0 0 100 100" xml:space="preserve"><g><g><g><path d="M53.193,65.07l-2.923-0.676c1.546-6.691,3.945-11.883,8.279-17.92c0.367-0.511,1.151-1.536,1.612-2.053     c3.118-3.505,5.38-9.865,5.38-15.121c0-10.037-7.117-18.516-15.542-18.516S34.458,19.263,34.458,29.3     c0,5.256,2.263,11.616,5.38,15.121c0.462,0.52,1.247,1.544,1.612,2.053c4.334,6.038,6.733,11.229,8.279,17.921l-2.923,0.676     c-1.469-6.358-3.654-11.082-7.793-16.847c-0.364-0.507-1.077-1.427-1.417-1.809c-3.614-4.063-6.138-11.102-6.138-17.114     C31.458,17.637,39.95,7.784,50,7.784S68.542,17.637,68.542,29.3c0,6.013-2.524,13.051-6.138,17.115     c-0.373,0.419-1.088,1.352-1.417,1.809C56.848,53.989,54.663,58.712,53.193,65.07z"/></g><g><path d="M52.096,92.216h-4.191c-0.746,0-1.428-0.304-1.872-0.833c-0.404-0.481-0.573-1.113-0.463-1.731     c0.063-0.359,0.12-1.082,0.121-1.545l0.033-18.054c0.001-0.602,0.053-1.546,0.117-2.151l0.232-2.203     c0.149-1.316,1.292-2.337,2.604-2.337h2.689c1.32,0,2.46,1.028,2.595,2.341l0.211,2.215c0.058,0.599,0.104,1.539,0.104,2.138     v18.053c0,0.487,0.069,1.2,0.131,1.512c0.124,0.624-0.035,1.262-0.437,1.752C53.529,91.908,52.846,92.216,52.096,92.216z      M48.639,89.216h2.692c-0.035-0.38-0.056-0.776-0.056-1.108V70.055c0-0.5-0.042-1.348-0.09-1.85l-0.176-1.844h-1.991     l-0.195,1.856c-0.054,0.502-0.1,1.344-0.101,1.84L48.69,88.111C48.689,88.442,48.67,88.838,48.639,89.216z"/></g><g><path d="M50,52.236c-4.212,0-8.277-1.75-11.754-5.059l2.068-2.173c2.028,1.931,5.355,4.232,9.686,4.232     c4.33,0,7.657-2.301,9.685-4.232l2.068,2.173C58.277,50.487,54.213,52.236,50,52.236z"/></g><g><rect x="47.225" y="67.955" width="5.551" height="3"/></g></g></g><text x="0" y="115" fill="#000000" font-size="5px" font-weight="bold" font-family="'Helvetica Neue', Helvetica, Arial-Unicode, Arial, Sans-serif">Created by lipi</text><text x="0" y="120" fill="#000000" font-size="5px" font-weight="bold" font-family="'Helvetica Neue', Helvetica, Arial-Unicode, Arial, Sans-serif">from the Noun Project</text></svg>