<svg xmlns="http://www.w3.org/2000/svg" xmlns:xlink="http://www.w3.org/1999/xlink" version="1.1" x="0px" y="0px" viewBox="0 0 63 78.75" enable-background="new 0 0 63 63" xml:space="preserve"><path d="M59.5,41.9h-18v-19h20v-4.5l-21-13.7l-21,13.7v4.5h20v19h-24L9.1,27.5c-0.6-1.3-2-2.3-3.9-1.5c-2.3,1-1.9,3.2-1.5,4l5.4,12  H3.5c-1.7,0-3,1.3-3,3s1.3,3,3,3h8.6l-3.5,5.7c-0.9,1.4-0.4,3.3,1,4.1c1.7,1,3.4,0.2,4.1-1l5.4-8.9h22.3l5.4,8.9  c0.7,1.2,2.4,2,4.1,1c1.4-0.8,1.9-2.7,1-4.1l-3.5-5.7h10.9c1.7,0,3-1.3,3-3S61.2,41.9,59.5,41.9z M59.5,19.5v1.5h-9.4L43.4,9  L59.5,19.5z M21.5,20.9v-1.5L37.6,9l-6.7,11.9H21.5z M33.2,20.9l7.3-13l7.3,13H33.2z M5.4,29.2c-0.1-0.2-0.2-1,0.5-1.3  c0.5-0.2,1.1,0,1.3,0.5l6.1,13.6h-2.2L5.4,29.2z M12,55.8c-0.3,0.5-0.9,0.6-1.4,0.3c-0.5-0.3-0.6-0.9-0.3-1.4l4.2-6.8h2.3L12,55.8z   M50.4,54.7c0.3,0.5,0.1,1.1-0.3,1.4c-0.5,0.3-1.1,0.1-1.4-0.3l-4.8-7.8h2.3L50.4,54.7z M59.5,45.9h-56c-0.6,0-1-0.4-1-1s0.4-1,1-1  h56c0.6,0,1,0.4,1,1S60.1,45.9,59.5,45.9z"/><text x="0" y="78" fill="#000000" font-size="5px" font-weight="bold" font-family="'Helvetica Neue', Helvetica, Arial-Unicode, Arial, Sans-serif">Created by ProSymbols</text><text x="0" y="83" fill="#000000" font-size="5px" font-weight="bold" font-family="'Helvetica Neue', Helvetica, Arial-Unicode, Arial, Sans-serif">from the Noun Project</text></svg>